<svg width="29" height="48" viewBox="0 0 29 48" fill="none" xmlns="http://www.w3.org/2000/svg">
<path fill-rule="evenodd" clip-rule="evenodd" d="M25.3276 9.86208L15.1733 1.78739C14.9608 1.61808 14.6972 1.52588 14.4255 1.52588C14.1539 1.52588 13.8903 1.61808 13.6778 1.78739L3.52223 9.86208C3.23919 10.0872 3.01059 10.3733 2.85344 10.699C2.6963 11.0248 2.61467 11.3818 2.61462 11.7434V23.0651C2.61462 23.8302 2.91859 24.5641 3.45965 25.1051C4.00071 25.6462 4.73455 25.9502 5.49973 25.9502H12.0213V20.2376C12.0213 19.9188 12.1479 19.6131 12.3734 19.3876C12.5988 19.1622 12.9046 19.0355 13.2234 19.0355H15.6277C15.9465 19.0355 16.2522 19.1622 16.4777 19.3876C16.7031 19.6131 16.8298 19.9188 16.8298 20.2376V25.9502H23.3501C24.1153 25.9502 24.8491 25.6462 25.3902 25.1051C25.9313 24.5641 26.2352 23.8302 26.2352 23.0651V11.7446C26.2352 11.383 26.1536 11.026 25.9964 10.7002C25.8393 10.3745 25.6107 10.0884 25.3276 9.86328" fill="#212196"/>
<path d="M18.3858 40.4621V43.8067H10.3924V40.4621H18.3858ZM11.6062 41.4048V42.864H17.1978V41.4048H11.6062ZM19.0831 33.2951V34.2378H9.66921V33.2951H13.7886V32.2233H15.0154V33.2951H19.0831ZM14.3955 34.651C16.8362 34.651 18.1921 35.2063 18.1921 36.291C18.1921 37.2789 17.0622 37.8277 15.0154 37.9181V38.7058H19.6772V39.6744H9.12685V38.7058H13.7886V37.9181C11.7418 37.8277 10.5861 37.2789 10.599 36.291C10.5861 35.2063 11.9678 34.651 14.3955 34.651ZM14.3955 35.4904C12.7814 35.5033 11.9032 35.7616 11.9032 36.291C11.9032 36.8076 12.7814 37.0917 14.3955 37.0917C16.0226 37.0917 16.8878 36.8076 16.8878 36.291C16.8878 35.7616 16.0226 35.5033 14.3955 35.4904Z" fill="#212196"/>
</svg>
