<svg width="281" height="178" viewBox="0 0 281 178" fill="none" xmlns="http://www.w3.org/2000/svg">
<g clip-path="url(#clip0_1020_1249)">
<rect width="280.064" height="178" rx="13.0642" fill="url(#paint0_linear_1020_1249)"/>
<path d="M20.5383 34.5967V24.8638H24.6404C25.2849 24.8638 25.8336 24.9771 26.2865 25.2035C26.7481 25.4212 27.1009 25.7348 27.3447 26.1441C27.5973 26.5448 27.7236 27.0325 27.7236 27.6073C27.7236 28.0515 27.6017 28.4696 27.3578 28.8615C27.1226 29.2447 26.7438 29.5626 26.2212 29.8152V28.9921C26.7002 29.175 27.0791 29.4015 27.3578 29.6715C27.6365 29.9415 27.8325 30.2419 27.9457 30.5729C28.0589 30.9039 28.1155 31.2522 28.1155 31.618C28.1155 32.55 27.8063 33.2815 27.188 33.8128C26.5783 34.3354 25.7291 34.5967 24.6404 34.5967H20.5383ZM22.315 33.029H24.8233C25.2849 33.029 25.6507 32.9027 25.9207 32.6501C26.1994 32.3888 26.3388 32.0448 26.3388 31.618C26.3388 31.1913 26.1994 30.8472 25.9207 30.586C25.6507 30.3247 25.2849 30.194 24.8233 30.194H22.315V33.029ZM22.315 28.6394H24.7319C25.0977 28.6394 25.3895 28.5349 25.6072 28.3259C25.8249 28.1081 25.9338 27.8294 25.9338 27.4897C25.9338 27.1501 25.8249 26.8801 25.6072 26.6798C25.3895 26.4794 25.0977 26.3793 24.7319 26.3793H22.315V28.6394ZM31.5829 34.7535C31.0864 34.7535 30.6553 34.6707 30.2895 34.5052C29.9237 34.3398 29.6406 34.1046 29.4403 33.7998C29.24 33.4862 29.1398 33.1248 29.1398 32.7154C29.1398 32.3235 29.2269 31.9751 29.4011 31.6703C29.5753 31.3568 29.8453 31.0955 30.2111 30.8864C30.5769 30.6774 31.0385 30.5294 31.5959 30.4423L33.9213 30.0634V31.3698L31.9225 31.7095C31.5829 31.7705 31.3303 31.8793 31.1648 32.0361C30.9993 32.1929 30.9166 32.3975 30.9166 32.6501C30.9166 32.894 31.008 33.0899 31.1909 33.238C31.3825 33.3774 31.6177 33.447 31.8964 33.447C32.2535 33.447 32.567 33.373 32.837 33.2249C33.1157 33.0682 33.3291 32.8548 33.4772 32.5848C33.6339 32.3148 33.7123 32.0187 33.7123 31.6964V29.8674C33.7123 29.5626 33.5904 29.31 33.3465 29.1097C33.1114 28.9007 32.7978 28.7962 32.4059 28.7962C32.0401 28.7962 31.7135 28.8963 31.4261 29.0966C31.1474 29.2883 30.9427 29.5452 30.8121 29.8674L29.4142 29.1881C29.5535 28.8136 29.7713 28.4913 30.0674 28.2213C30.3722 27.9426 30.7293 27.7249 31.1387 27.5681C31.548 27.4114 31.9922 27.333 32.4712 27.333C33.0548 27.333 33.5686 27.4418 34.0128 27.6596C34.457 27.8686 34.801 28.1647 35.0449 28.5479C35.2974 28.9225 35.4237 29.3623 35.4237 29.8674V34.5967H33.8038V33.3817L34.1696 33.3556C33.9867 33.6604 33.7689 33.9173 33.5164 34.1264C33.2638 34.3267 32.9764 34.4835 32.6541 34.5967C32.3319 34.7012 31.9748 34.7535 31.5829 34.7535ZM37.0055 34.5967V27.4897H38.6124V28.8876L38.4818 28.6394C38.6473 28.2126 38.9173 27.8904 39.2918 27.6726C39.675 27.4462 40.1192 27.333 40.6243 27.333C41.1469 27.333 41.6085 27.4462 42.0091 27.6726C42.4185 27.8991 42.7364 28.217 42.9628 28.6263C43.1893 29.027 43.3025 29.4929 43.3025 30.0242V34.5967H41.5911V30.4292C41.5911 30.1157 41.5301 29.8457 41.4082 29.6192C41.2862 29.3928 41.1164 29.2186 40.8987 29.0966C40.6896 28.966 40.4414 28.9007 40.154 28.9007C39.8753 28.9007 39.6271 28.966 39.4093 29.0966C39.1916 29.2186 39.0218 29.3928 38.8998 29.6192C38.7779 29.8457 38.7169 30.1157 38.7169 30.4292V34.5967H37.0055ZM44.7496 34.5967V24.7071H46.4611V31.1869L45.8079 30.991L49.1523 27.4897H51.2818L48.6559 30.3508L51.334 34.5967H49.3744L47.049 30.9126L48.068 30.7035L45.9254 33.0028L46.4611 31.9577V34.5967H44.7496Z" fill="white"/>
<path d="M25.7901 90.7352C24.7319 90.7352 23.8109 90.5392 23.027 90.1473C22.2562 89.7423 21.6553 89.2001 21.2242 88.5208C20.8061 87.8414 20.5971 87.0968 20.5971 86.2868C20.5971 85.3331 20.8518 84.5297 21.3613 83.8764C21.8708 83.2102 22.609 82.7203 23.5757 82.4067L23.4189 83.0534C22.7265 82.8313 22.1778 82.4002 21.7728 81.76C21.3809 81.1199 21.185 80.4144 21.185 79.6436C21.185 78.8728 21.3809 78.187 21.7728 77.586C22.1648 76.9851 22.7069 76.5148 23.3993 76.1751C24.0917 75.8354 24.8887 75.6656 25.7901 75.6656C26.6785 75.6656 27.4623 75.8354 28.1417 76.1751C28.8341 76.5148 29.3762 76.9851 29.7682 77.586C30.1731 78.187 30.3756 78.8728 30.3756 79.6436C30.3756 80.4275 30.1731 81.1395 29.7682 81.7796C29.3762 82.4067 28.8341 82.8378 28.1417 83.073L28.0045 82.3871C28.9712 82.7268 29.7094 83.2298 30.2189 83.896C30.7284 84.5492 30.9831 85.3527 30.9831 86.3064C30.9831 87.1164 30.7676 87.861 30.3364 88.5404C29.9184 89.2066 29.3174 89.7423 28.5336 90.1473C27.7628 90.5392 26.8483 90.7352 25.7901 90.7352ZM25.7901 88.4816C26.2996 88.4816 26.7438 88.3901 27.1226 88.2072C27.5015 88.0113 27.7955 87.7434 28.0045 87.4038C28.2135 87.051 28.318 86.6526 28.318 86.2084C28.318 85.7512 28.2135 85.3592 28.0045 85.0326C27.7955 84.693 27.5015 84.4317 27.1226 84.2488C26.7438 84.0528 26.2996 83.9548 25.7901 83.9548C25.2806 83.9548 24.8364 84.0528 24.4575 84.2488C24.0917 84.4317 23.8043 84.693 23.5953 85.0326C23.3863 85.3592 23.2818 85.7512 23.2818 86.2084C23.2818 86.6526 23.3863 87.051 23.5953 87.4038C23.8043 87.7434 24.0917 88.0113 24.4575 88.2072C24.8364 88.3901 25.2806 88.4816 25.7901 88.4816ZM25.7901 81.7012C26.169 81.7012 26.5021 81.6163 26.7895 81.4465C27.0769 81.2767 27.299 81.0546 27.4558 80.7802C27.6256 80.4928 27.7105 80.1662 27.7105 79.8004C27.7105 79.4346 27.6256 79.1145 27.4558 78.8402C27.299 78.5528 27.0769 78.3307 26.7895 78.1739C26.5021 78.0041 26.169 77.9192 25.7901 77.9192C25.4112 77.9192 25.0716 78.0041 24.7711 78.1739C24.4837 78.3307 24.2551 78.5528 24.0852 78.8402C23.9284 79.1145 23.8501 79.4346 23.8501 79.8004C23.8501 80.1662 23.9284 80.4928 24.0852 80.7802C24.2551 81.0546 24.4837 81.2767 24.7711 81.4465C25.0716 81.6163 25.4112 81.7012 25.7901 81.7012ZM33.3903 90.5L39.4651 78.1543H32.5868V75.9007H42.2674V78.1543L36.3297 90.5H33.3903ZM47.8678 90.7352C46.8749 90.7352 45.9931 90.5261 45.2223 90.1081C44.4646 89.677 43.8702 89.1021 43.439 88.3836C43.0079 87.652 42.7924 86.8224 42.7924 85.8949C42.7924 85.4245 42.8381 84.9542 42.9295 84.4839C43.0341 84.0136 43.217 83.5106 43.4782 82.975C43.7526 82.4394 44.1445 81.845 44.654 81.1917L48.7301 75.9007H51.9047L46.9468 82.2695L46.5157 81.7992C46.6986 81.6555 46.888 81.5445 47.084 81.4661C47.2799 81.3746 47.4759 81.3093 47.6719 81.2701C47.8809 81.2309 48.0964 81.2113 48.3185 81.2113C49.2069 81.2113 49.9973 81.4138 50.6897 81.8188C51.3821 82.2238 51.9243 82.779 52.3162 83.4845C52.7212 84.1769 52.9237 84.9608 52.9237 85.8361C52.9237 86.7767 52.7081 87.6193 52.277 88.364C51.8459 89.0956 51.2449 89.677 50.4741 90.1081C49.7164 90.5261 48.8476 90.7352 47.8678 90.7352ZM47.8678 88.3248C48.312 88.3248 48.7105 88.2268 49.0632 88.0309C49.429 87.8218 49.7164 87.5279 49.9254 87.149C50.1475 86.7702 50.2586 86.3456 50.2586 85.8753C50.2586 85.3788 50.1475 84.9542 49.9254 84.6015C49.7164 84.2357 49.4355 83.9483 49.0828 83.7393C48.7301 83.5302 48.3251 83.4257 47.8678 83.4257C47.4236 83.4257 47.0186 83.5302 46.6528 83.7393C46.287 83.9483 45.9931 84.2357 45.771 84.6015C45.562 84.9542 45.4575 85.3788 45.4575 85.8753C45.4575 86.3456 45.562 86.7702 45.771 87.149C45.9931 87.5279 46.287 87.8218 46.6528 88.0309C47.0186 88.2268 47.4236 88.3248 47.8678 88.3248ZM59.4799 90.7352C58.6829 90.7352 57.9252 90.5914 57.2067 90.304C56.5012 90.0036 55.8937 89.5855 55.3842 89.0499C54.8878 88.5012 54.5481 87.8545 54.3652 87.1098L56.6972 86.2868C56.9323 86.9531 57.2916 87.4626 57.775 87.8153C58.2584 88.155 58.8267 88.3248 59.4799 88.3248C60.0024 88.3248 60.4531 88.2268 60.832 88.0309C61.2239 87.8349 61.5309 87.554 61.753 87.1882C61.9751 86.8094 62.0862 86.3652 62.0862 85.8557C62.0862 85.3462 61.9751 84.915 61.753 84.5623C61.544 84.1965 61.2435 83.9156 60.8516 83.7197C60.4597 83.5237 59.9959 83.4257 59.4603 83.4257C59.212 83.4257 58.9508 83.4519 58.6764 83.5041C58.4151 83.5564 58.18 83.6348 57.9709 83.7393L57.3635 82.4655L61.1456 78.1543H55.1883V75.9007H64.1438V77.9975L60.3421 82.4459L60.3813 81.4465C61.2566 81.4596 62.0209 81.649 62.6741 82.0148C63.3273 82.3806 63.8368 82.8836 64.2026 83.5237C64.5684 84.1639 64.7513 84.915 64.7513 85.7773C64.7513 86.7179 64.5227 87.5671 64.0654 88.3248C63.6082 89.0695 62.9811 89.6574 62.1842 90.0885C61.3872 90.5196 60.4858 90.7352 59.4799 90.7352ZM70.1023 90.5V88.4816L74.0608 84.3468C74.8446 83.5237 75.4456 82.8705 75.8636 82.3871C76.2947 81.8907 76.5952 81.4661 76.7651 81.1134C76.9349 80.7606 77.0198 80.4014 77.0198 80.0356C77.0198 79.4215 76.8238 78.9382 76.4319 78.5854C76.0531 78.2327 75.5631 78.0563 74.9622 78.0563C74.3351 78.0563 73.7929 78.2392 73.3357 78.605C72.8784 78.9578 72.5453 79.4803 72.3363 80.1727L70.0043 79.4477C70.1611 78.6769 70.4812 78.0106 70.9645 77.4488C71.4479 76.874 72.0358 76.4364 72.7282 76.1359C73.4337 75.8223 74.1783 75.6656 74.9622 75.6656C75.9028 75.6656 76.7259 75.8354 77.4313 76.1751C78.1499 76.5148 78.7051 76.9916 79.097 77.6056C79.502 78.2196 79.7045 78.9382 79.7045 79.7612C79.7045 80.2838 79.6065 80.7998 79.4106 81.3093C79.2146 81.8188 78.9206 82.3414 78.5287 82.877C78.1368 83.3996 77.6273 83.9875 77.0002 84.6407L73.5708 88.2464H79.9005V90.5H70.1023ZM82.3045 90.5L88.3794 78.1543H81.5011V75.9007H91.1817V78.1543L85.244 90.5H82.3045ZM97.5817 90.7352C96.7848 90.7352 96.0271 90.5914 95.3085 90.304C94.6031 90.0036 93.9956 89.5855 93.4861 89.0499C92.9896 88.5012 92.65 87.8545 92.4671 87.1098L94.799 86.2868C95.0342 86.9531 95.3935 87.4626 95.8768 87.8153C96.3602 88.155 96.9285 88.3248 97.5817 88.3248C98.1043 88.3248 98.555 88.2268 98.9339 88.0309C99.3258 87.8349 99.6328 87.554 99.8549 87.1882C100.077 86.8094 100.188 86.3652 100.188 85.8557C100.188 85.3462 100.077 84.915 99.8549 84.5623C99.6459 84.1965 99.3454 83.9156 98.9535 83.7197C98.5615 83.5237 98.0978 83.4257 97.5621 83.4257C97.3139 83.4257 97.0526 83.4519 96.7783 83.5041C96.517 83.5564 96.2818 83.6348 96.0728 83.7393L95.4653 82.4655L99.2474 78.1543H93.2901V75.9007H102.246V77.9975L98.444 82.4459L98.4831 81.4465C99.3584 81.4596 100.123 81.649 100.776 82.0148C101.429 82.3806 101.939 82.8836 102.304 83.5237C102.67 84.1639 102.853 84.915 102.853 85.7773C102.853 86.7179 102.625 87.5671 102.167 88.3248C101.71 89.0695 101.083 89.6574 100.286 90.0885C99.4891 90.5196 98.5877 90.7352 97.5817 90.7352ZM109.738 90.7352C108.745 90.7352 107.863 90.5261 107.092 90.1081C106.335 89.677 105.74 89.1021 105.309 88.3836C104.878 87.652 104.662 86.8224 104.662 85.8949C104.662 85.4245 104.708 84.9542 104.8 84.4839C104.904 84.0136 105.087 83.5106 105.348 82.975C105.623 82.4394 106.015 81.845 106.524 81.1917L110.6 75.9007H113.775L108.817 82.2695L108.386 81.7992C108.569 81.6555 108.758 81.5445 108.954 81.4661C109.15 81.3746 109.346 81.3093 109.542 81.2701C109.751 81.2309 109.966 81.2113 110.189 81.2113C111.077 81.2113 111.867 81.4138 112.56 81.8188C113.252 82.2238 113.794 82.779 114.186 83.4845C114.591 84.1769 114.794 84.9608 114.794 85.8361C114.794 86.7767 114.578 87.6193 114.147 88.364C113.716 89.0956 113.115 89.677 112.344 90.1081C111.586 90.5261 110.718 90.7352 109.738 90.7352ZM109.738 88.3248C110.182 88.3248 110.581 88.2268 110.933 88.0309C111.299 87.8218 111.586 87.5279 111.795 87.149C112.018 86.7702 112.129 86.3456 112.129 85.8753C112.129 85.3788 112.018 84.9542 111.795 84.6015C111.586 84.2357 111.306 83.9483 110.953 83.7393C110.6 83.5302 110.195 83.4257 109.738 83.4257C109.294 83.4257 108.889 83.5302 108.523 83.7393C108.157 83.9483 107.863 84.2357 107.641 84.6015C107.432 84.9542 107.328 85.3788 107.328 85.8753C107.328 86.3456 107.432 86.7702 107.641 87.149C107.863 87.5279 108.157 87.8218 108.523 88.0309C108.889 88.2268 109.294 88.3248 109.738 88.3248ZM120.933 90.5L125.891 84.1116L126.342 84.5819C126.146 84.7256 125.956 84.8432 125.773 84.9346C125.591 85.0261 125.395 85.0914 125.186 85.1306C124.977 85.1698 124.754 85.1894 124.519 85.1894C123.631 85.1894 122.841 84.9869 122.148 84.5819C121.456 84.1769 120.907 83.6282 120.502 82.9358C120.11 82.2303 119.914 81.4334 119.914 80.5451C119.914 79.6044 120.13 78.7683 120.561 78.0367C121.005 77.3051 121.606 76.7303 122.364 76.3123C123.135 75.8811 124.01 75.6656 124.99 75.6656C125.983 75.6656 126.858 75.8746 127.616 76.2927C128.373 76.7107 128.968 77.2855 129.399 78.0171C129.843 78.7357 130.065 79.5652 130.065 80.5059C130.065 80.9762 130.013 81.4465 129.908 81.9168C129.804 82.3871 129.614 82.8901 129.34 83.4257C129.079 83.9483 128.7 84.5427 128.203 85.209L124.127 90.5H120.933ZM124.99 82.9554C125.447 82.9554 125.852 82.8574 126.205 82.6615C126.57 82.4524 126.858 82.165 127.067 81.7992C127.276 81.4204 127.38 80.9958 127.38 80.5255C127.38 80.029 127.269 79.5979 127.047 79.2321C126.838 78.8663 126.557 78.5789 126.205 78.3699C125.852 78.1608 125.447 78.0563 124.99 78.0563C124.545 78.0563 124.14 78.1608 123.775 78.3699C123.409 78.5789 123.115 78.8663 122.893 79.2321C122.684 79.5979 122.579 80.029 122.579 80.5255C122.579 80.9958 122.684 81.4204 122.893 81.7992C123.115 82.165 123.409 82.4524 123.775 82.6615C124.14 82.8574 124.545 82.9554 124.99 82.9554ZM137.072 90.7352C136.014 90.7352 135.093 90.5392 134.309 90.1473C133.538 89.7423 132.937 89.2001 132.506 88.5208C132.088 87.8414 131.879 87.0968 131.879 86.2868C131.879 85.3331 132.134 84.5297 132.643 83.8764C133.153 83.2102 133.891 82.7203 134.858 82.4067L134.701 83.0534C134.008 82.8313 133.46 82.4002 133.055 81.76C132.663 81.1199 132.467 80.4144 132.467 79.6436C132.467 78.8728 132.663 78.187 133.055 77.586C133.447 76.9851 133.989 76.5148 134.681 76.1751C135.374 75.8354 136.171 75.6656 137.072 75.6656C137.96 75.6656 138.744 75.8354 139.424 76.1751C140.116 76.5148 140.658 76.9851 141.05 77.586C141.455 78.187 141.658 78.8728 141.658 79.6436C141.658 80.4275 141.455 81.1395 141.05 81.7796C140.658 82.4067 140.116 82.8378 139.424 83.073L139.286 82.3871C140.253 82.7268 140.991 83.2298 141.501 83.896C142.01 84.5492 142.265 85.3527 142.265 86.3064C142.265 87.1164 142.049 87.861 141.618 88.5404C141.2 89.2066 140.599 89.7423 139.815 90.1473C139.045 90.5392 138.13 90.7352 137.072 90.7352ZM137.072 88.4816C137.582 88.4816 138.026 88.3901 138.405 88.2072C138.783 88.0113 139.077 87.7434 139.286 87.4038C139.495 87.051 139.6 86.6526 139.6 86.2084C139.6 85.7512 139.495 85.3592 139.286 85.0326C139.077 84.693 138.783 84.4317 138.405 84.2488C138.026 84.0528 137.582 83.9548 137.072 83.9548C136.562 83.9548 136.118 84.0528 135.739 84.2488C135.374 84.4317 135.086 84.693 134.877 85.0326C134.668 85.3592 134.564 85.7512 134.564 86.2084C134.564 86.6526 134.668 87.051 134.877 87.4038C135.086 87.7434 135.374 88.0113 135.739 88.2072C136.118 88.3901 136.562 88.4816 137.072 88.4816ZM137.072 81.7012C137.451 81.7012 137.784 81.6163 138.071 81.4465C138.359 81.2767 138.581 81.0546 138.738 80.7802C138.908 80.4928 138.992 80.1662 138.992 79.8004C138.992 79.4346 138.908 79.1145 138.738 78.8402C138.581 78.5528 138.359 78.3307 138.071 78.1739C137.784 78.0041 137.451 77.9192 137.072 77.9192C136.693 77.9192 136.353 78.0041 136.053 78.1739C135.766 78.3307 135.537 78.5528 135.367 78.8402C135.21 79.1145 135.132 79.4346 135.132 79.8004C135.132 80.1662 135.21 80.4928 135.367 80.7802C135.537 81.0546 135.766 81.2767 136.053 81.4465C136.353 81.6163 136.693 81.7012 137.072 81.7012ZM144.672 90.5L150.747 78.1543H143.869V75.9007H153.549V78.1543L147.612 90.5H144.672ZM159.949 90.7352C159.152 90.7352 158.395 90.5914 157.676 90.304C156.971 90.0036 156.363 89.5855 155.854 89.0499C155.357 88.5012 155.018 87.8545 154.835 87.1098L157.167 86.2868C157.402 86.9531 157.761 87.4626 158.244 87.8153C158.728 88.155 159.296 88.3248 159.949 88.3248C160.472 88.3248 160.923 88.2268 161.301 88.0309C161.693 87.8349 162 87.554 162.223 87.1882C162.445 86.8094 162.556 86.3652 162.556 85.8557C162.556 85.3462 162.445 84.915 162.223 84.5623C162.013 84.1965 161.713 83.9156 161.321 83.7197C160.929 83.5237 160.465 83.4257 159.93 83.4257C159.682 83.4257 159.42 83.4519 159.146 83.5041C158.885 83.5564 158.649 83.6348 158.44 83.7393L157.833 82.4655L161.615 78.1543H155.658V75.9007H164.613V77.9975L160.812 82.4459L160.851 81.4465C161.726 81.4596 162.49 81.649 163.144 82.0148C163.797 82.3806 164.306 82.8836 164.672 83.5237C165.038 84.1639 165.221 84.915 165.221 85.7773C165.221 86.7179 164.992 87.5671 164.535 88.3248C164.078 89.0695 163.451 89.6574 162.654 90.0885C161.857 90.5196 160.955 90.7352 159.949 90.7352ZM176.607 90.7352C175.445 90.7352 174.426 90.4216 173.55 89.7945C172.675 89.1674 171.989 88.2856 171.493 87.149C171.009 86.0124 170.768 84.693 170.768 83.1906C170.768 81.6751 171.009 80.3556 171.493 79.2321C171.976 78.1086 172.656 77.2333 173.531 76.6062C174.406 75.9791 175.425 75.6656 176.588 75.6656C177.777 75.6656 178.802 75.9791 179.664 76.6062C180.54 77.2333 181.226 78.1151 181.722 79.2517C182.219 80.3752 182.467 81.6882 182.467 83.1906C182.467 84.693 182.219 86.0124 181.722 87.149C181.239 88.2726 180.559 89.1544 179.684 89.7945C178.809 90.4216 177.783 90.7352 176.607 90.7352ZM176.627 88.3052C177.293 88.3052 177.862 88.1027 178.332 87.6977C178.802 87.2797 179.161 86.6918 179.41 85.9341C179.671 85.1633 179.802 84.2488 179.802 83.1906C179.802 82.1324 179.671 81.2244 179.41 80.4667C179.161 79.6959 178.796 79.108 178.312 78.703C177.842 78.298 177.267 78.0955 176.588 78.0955C175.935 78.0955 175.373 78.298 174.903 78.703C174.432 79.108 174.066 79.6959 173.805 80.4667C173.557 81.2244 173.433 82.1324 173.433 83.1906C173.433 84.2357 173.557 85.1437 173.805 85.9145C174.066 86.6722 174.432 87.2601 174.903 87.6781C175.386 88.0962 175.961 88.3052 176.627 88.3052ZM189.286 90.7352C188.49 90.7352 187.732 90.5914 187.013 90.304C186.308 90.0036 185.7 89.5855 185.191 89.0499C184.694 88.5012 184.355 87.8545 184.172 87.1098L186.504 86.2868C186.739 86.9531 187.098 87.4626 187.582 87.8153C188.065 88.155 188.633 88.3248 189.286 88.3248C189.809 88.3248 190.26 88.2268 190.639 88.0309C191.03 87.8349 191.338 87.554 191.56 87.1882C191.782 86.8094 191.893 86.3652 191.893 85.8557C191.893 85.3462 191.782 84.915 191.56 84.5623C191.351 84.1965 191.05 83.9156 190.658 83.7197C190.266 83.5237 189.802 83.4257 189.267 83.4257C189.019 83.4257 188.757 83.4519 188.483 83.5041C188.222 83.5564 187.987 83.6348 187.778 83.7393L187.17 82.4655L190.952 78.1543H184.995V75.9007H193.95V77.9975L190.149 82.4459L190.188 81.4465C191.063 81.4596 191.827 81.649 192.481 82.0148C193.134 82.3806 193.643 82.8836 194.009 83.5237C194.375 84.1639 194.558 84.915 194.558 85.7773C194.558 86.7179 194.329 87.5671 193.872 88.3248C193.415 89.0695 192.788 89.6574 191.991 90.0885C191.194 90.5196 190.292 90.7352 189.286 90.7352ZM196.426 90.5V88.4816L200.384 84.3468C201.168 83.5237 201.769 82.8705 202.187 82.3871C202.618 81.8907 202.919 81.4661 203.089 81.1134C203.258 80.7606 203.343 80.4014 203.343 80.0356C203.343 79.4215 203.147 78.9382 202.756 78.5854C202.377 78.2327 201.887 78.0563 201.286 78.0563C200.659 78.0563 200.117 78.2392 199.659 78.605C199.202 78.9578 198.869 79.4803 198.66 80.1727L196.328 79.4477C196.485 78.6769 196.805 78.0106 197.288 77.4488C197.772 76.874 198.359 76.4364 199.052 76.1359C199.757 75.8223 200.502 75.6656 201.286 75.6656C202.226 75.6656 203.049 75.8354 203.755 76.1751C204.473 76.5148 205.029 76.9916 205.421 77.6056C205.826 78.2196 206.028 78.9382 206.028 79.7612C206.028 80.2838 205.93 80.7998 205.734 81.3093C205.538 81.8188 205.244 82.3414 204.852 82.877C204.46 83.3996 203.951 83.9875 203.324 84.6407L199.894 88.2464H206.224V90.5H196.426ZM209.059 90.5L214.017 84.1116L214.468 84.5819C214.272 84.7256 214.082 84.8432 213.9 84.9346C213.717 85.0261 213.521 85.0914 213.312 85.1306C213.103 85.1698 212.881 85.1894 212.645 85.1894C211.757 85.1894 210.967 84.9869 210.274 84.5819C209.582 84.1769 209.033 83.6282 208.628 82.9358C208.236 82.2303 208.04 81.4334 208.04 80.5451C208.04 79.6044 208.256 78.7683 208.687 78.0367C209.131 77.3051 209.732 76.7303 210.49 76.3123C211.261 75.8811 212.136 75.6656 213.116 75.6656C214.109 75.6656 214.984 75.8746 215.742 76.2927C216.499 76.7107 217.094 77.2855 217.525 78.0171C217.969 78.7357 218.191 79.5652 218.191 80.5059C218.191 80.9762 218.139 81.4465 218.034 81.9168C217.93 82.3871 217.74 82.8901 217.466 83.4257C217.205 83.9483 216.826 84.5427 216.33 85.209L212.253 90.5H209.059ZM213.116 82.9554C213.573 82.9554 213.978 82.8574 214.331 82.6615C214.696 82.4524 214.984 82.165 215.193 81.7992C215.402 81.4204 215.506 80.9958 215.506 80.5255C215.506 80.029 215.395 79.5979 215.173 79.2321C214.964 78.8663 214.683 78.5789 214.331 78.3699C213.978 78.1608 213.573 78.0563 213.116 78.0563C212.672 78.0563 212.267 78.1608 211.901 78.3699C211.535 78.5789 211.241 78.8663 211.019 79.2321C210.81 79.5979 210.705 80.029 210.705 80.5255C210.705 80.9958 210.81 81.4204 211.019 81.7992C211.241 82.165 211.535 82.4524 211.901 82.6615C212.267 82.8574 212.672 82.9554 213.116 82.9554Z" fill="white"/>
<path d="M23.7913 137.521C23.2752 137.521 22.8017 137.429 22.3705 137.247C21.9394 137.057 21.5638 136.796 21.2437 136.463C20.9302 136.123 20.6853 135.725 20.5089 135.267C20.3325 134.81 20.2443 134.307 20.2443 133.758C20.2443 133.21 20.3325 132.707 20.5089 132.249C20.6853 131.792 20.9302 131.394 21.2437 131.054C21.5638 130.714 21.9394 130.453 22.3705 130.27C22.8017 130.081 23.2752 129.986 23.7913 129.986C24.2877 129.986 24.7319 130.074 25.1238 130.251C25.5223 130.427 25.8554 130.656 26.1232 130.937C26.3976 131.211 26.5935 131.502 26.7111 131.809L25.9763 132.132C25.7934 131.707 25.5125 131.368 25.1336 131.113C24.7613 130.852 24.3138 130.721 23.7913 130.721C23.2556 130.721 22.7788 130.848 22.3607 131.103C21.9427 131.358 21.6161 131.714 21.3809 132.171C21.1458 132.622 21.0282 133.151 21.0282 133.758C21.0282 134.359 21.1458 134.888 21.3809 135.346C21.6161 135.803 21.9427 136.159 22.3607 136.414C22.7788 136.662 23.2556 136.786 23.7913 136.786C24.3138 136.786 24.7613 136.659 25.1336 136.404C25.5125 136.149 25.7934 135.809 25.9763 135.385L26.7111 135.708C26.5935 136.009 26.3976 136.299 26.1232 136.58C25.8554 136.855 25.5223 137.08 25.1238 137.256C24.7319 137.433 24.2877 137.521 23.7913 137.521ZM29.43 137.521C29.0968 137.521 28.7996 137.459 28.5383 137.335C28.277 137.204 28.0713 137.028 27.921 136.806C27.7708 136.584 27.6957 136.329 27.6957 136.041C27.6957 135.767 27.7545 135.519 27.8721 135.297C27.9896 135.068 28.1725 134.875 28.4208 134.719C28.669 134.562 28.9858 134.451 29.3712 134.385L31.4288 134.043V134.709L29.5475 135.022C29.1687 135.088 28.8943 135.209 28.7245 135.385C28.5612 135.561 28.4795 135.77 28.4795 136.012C28.4795 136.247 28.571 136.446 28.7539 136.61C28.9433 136.773 29.185 136.855 29.479 136.855C29.8382 136.855 30.1518 136.78 30.4196 136.629C30.6874 136.472 30.8964 136.263 31.0467 136.002C31.1969 135.741 31.272 135.45 31.272 135.13V133.798C31.272 133.484 31.1577 133.229 30.9291 133.033C30.7005 132.837 30.4032 132.739 30.0374 132.739C29.7174 132.739 29.4365 132.821 29.1948 132.984C28.9531 133.141 28.7735 133.347 28.6559 133.602L27.9896 133.239C28.0876 133.017 28.2411 132.815 28.4501 132.632C28.6657 132.449 28.9107 132.305 29.185 132.2C29.4594 132.089 29.7435 132.034 30.0374 132.034C30.4228 132.034 30.7625 132.109 31.0565 132.259C31.3569 132.41 31.5888 132.619 31.7521 132.886C31.922 133.148 32.0069 133.451 32.0069 133.798V137.403H31.272V136.355L31.3798 136.463C31.2883 136.659 31.1446 136.838 30.9487 137.002C30.7592 137.158 30.5339 137.286 30.2726 137.384C30.0179 137.475 29.737 137.521 29.43 137.521ZM33.5184 137.403V132.152H34.2533V133.014L34.1553 132.886C34.2794 132.638 34.4656 132.442 34.7138 132.298C34.9685 132.155 35.2755 132.083 35.6348 132.083H35.9679V132.818H35.5074C35.1286 132.818 34.8248 132.935 34.5962 133.171C34.3676 133.406 34.2533 133.739 34.2533 134.17V137.403H33.5184ZM39.2003 137.521C38.7104 137.521 38.2694 137.403 37.8775 137.168C37.4856 136.926 37.1753 136.6 36.9467 136.188C36.7246 135.77 36.6135 135.3 36.6135 134.777C36.6135 134.248 36.7246 133.778 36.9467 133.366C37.1753 132.955 37.4823 132.632 37.8677 132.396C38.2596 132.155 38.7038 132.034 39.2003 132.034C39.651 132.034 40.0527 132.132 40.4054 132.328C40.7582 132.524 41.0358 132.788 41.2383 133.122L41.1207 133.327V129.986H41.8556V137.403H41.1207V136.228L41.2383 136.335C41.0554 136.714 40.781 137.008 40.4152 137.217C40.056 137.42 39.651 137.521 39.2003 137.521ZM39.2395 136.786C39.5922 136.786 39.909 136.698 40.1899 136.521C40.4773 136.345 40.7027 136.107 40.866 135.806C41.0358 135.499 41.1207 135.156 41.1207 134.777C41.1207 134.399 41.0358 134.059 40.866 133.758C40.7027 133.451 40.4773 133.21 40.1899 133.033C39.909 132.857 39.5922 132.769 39.2395 132.769C38.8933 132.769 38.5797 132.857 38.2988 133.033C38.018 133.21 37.7959 133.448 37.6326 133.749C37.4758 134.049 37.3974 134.392 37.3974 134.777C37.3974 135.156 37.4758 135.499 37.6326 135.806C37.7959 136.107 38.0147 136.345 38.289 136.521C38.5699 136.698 38.8867 136.786 39.2395 136.786ZM45.1371 137.403V130.104H45.921V133.386H49.8402V130.104H50.6241V137.403H49.8402V134.121H45.921V137.403H45.1371ZM54.7033 137.521C54.2069 137.521 53.7562 137.403 53.3512 137.168C52.9462 136.926 52.6229 136.6 52.3812 136.188C52.146 135.77 52.0284 135.297 52.0284 134.768C52.0284 134.245 52.146 133.778 52.3812 133.366C52.6163 132.955 52.9331 132.632 53.3316 132.396C53.7366 132.155 54.1938 132.034 54.7033 132.034C55.2128 132.034 55.6668 132.152 56.0653 132.387C56.4703 132.622 56.7871 132.945 57.0157 133.357C57.2509 133.768 57.3684 134.239 57.3684 134.768C57.3684 135.303 57.2476 135.78 57.0059 136.198C56.7642 136.61 56.4409 136.933 56.0359 137.168C55.6374 137.403 55.1932 137.521 54.7033 137.521ZM54.7033 136.786C55.0561 136.786 55.3729 136.698 55.6538 136.521C55.9412 136.345 56.1665 136.103 56.3298 135.796C56.4997 135.489 56.5846 135.146 56.5846 134.768C56.5846 134.389 56.4997 134.049 56.3298 133.749C56.1665 133.448 55.9412 133.21 55.6538 133.033C55.3729 132.857 55.0561 132.769 54.7033 132.769C54.3506 132.769 54.0305 132.857 53.7431 133.033C53.4622 133.21 53.2369 133.448 53.067 133.749C52.8972 134.049 52.8123 134.389 52.8123 134.768C52.8123 135.146 52.8972 135.489 53.067 135.796C53.2369 136.103 53.4622 136.345 53.7431 136.521C54.0305 136.698 54.3506 136.786 54.7033 136.786ZM58.6645 137.403V129.986H59.3993V137.403H58.6645ZM63.2747 137.521C62.7848 137.521 62.3438 137.403 61.9519 137.168C61.56 136.926 61.2497 136.6 61.0211 136.188C60.799 135.77 60.6879 135.3 60.6879 134.777C60.6879 134.248 60.799 133.778 61.0211 133.366C61.2497 132.955 61.5567 132.632 61.9421 132.396C62.334 132.155 62.7782 132.034 63.2747 132.034C63.7254 132.034 64.1271 132.132 64.4798 132.328C64.8326 132.524 65.1102 132.788 65.3127 133.122L65.1951 133.327V129.986H65.93V137.403H65.1951V136.228L65.3127 136.335C65.1298 136.714 64.8554 137.008 64.4896 137.217C64.1304 137.42 63.7254 137.521 63.2747 137.521ZM63.3139 136.786C63.6666 136.786 63.9834 136.698 64.2643 136.521C64.5517 136.345 64.777 136.107 64.9404 135.806C65.1102 135.499 65.1951 135.156 65.1951 134.777C65.1951 134.399 65.1102 134.059 64.9404 133.758C64.777 133.451 64.5517 133.21 64.2643 133.033C63.9834 132.857 63.6666 132.769 63.3139 132.769C62.9677 132.769 62.6541 132.857 62.3732 133.033C62.0924 133.21 61.8703 133.448 61.707 133.749C61.5502 134.049 61.4718 134.392 61.4718 134.777C61.4718 135.156 61.5502 135.499 61.707 135.806C61.8703 136.107 62.0891 136.345 62.3634 136.521C62.6443 136.698 62.9611 136.786 63.3139 136.786ZM69.8296 137.521C69.3397 137.521 68.8955 137.403 68.497 137.168C68.1051 136.926 67.7948 136.597 67.5662 136.179C67.3376 135.76 67.2232 135.287 67.2232 134.758C67.2232 134.229 67.3343 133.762 67.5564 133.357C67.7785 132.945 68.079 132.622 68.4578 132.387C68.8432 132.152 69.2743 132.034 69.7512 132.034C70.13 132.034 70.4664 132.106 70.7604 132.249C71.0609 132.387 71.3156 132.576 71.5246 132.818C71.7337 133.053 71.8937 133.321 72.0048 133.621C72.1158 133.915 72.1713 134.219 72.1713 134.532C72.1713 134.598 72.1681 134.673 72.1615 134.758C72.155 134.836 72.1452 134.918 72.1321 135.003H67.6936V134.317H71.7108L71.3581 134.611C71.4169 134.252 71.3744 133.932 71.2307 133.651C71.0935 133.363 70.8943 133.138 70.633 132.975C70.3717 132.805 70.0778 132.72 69.7512 132.72C69.4246 132.72 69.1208 132.805 68.8399 132.975C68.5656 133.144 68.35 133.383 68.1933 133.69C68.0365 133.99 67.9744 134.35 68.0071 134.768C67.9744 135.186 68.0398 135.551 68.2031 135.865C68.3729 136.172 68.6015 136.41 68.8889 136.58C69.1829 136.75 69.4964 136.835 69.8296 136.835C70.215 136.835 70.5383 136.744 70.7996 136.561C71.0609 136.378 71.2732 136.149 71.4365 135.875L72.0635 136.208C71.959 136.443 71.799 136.662 71.5834 136.864C71.3679 137.06 71.1099 137.22 70.8094 137.345C70.5154 137.462 70.1888 137.521 69.8296 137.521ZM73.467 137.403V132.152H74.2018V133.014L74.1039 132.886C74.228 132.638 74.4141 132.442 74.6624 132.298C74.9171 132.155 75.2241 132.083 75.5834 132.083H75.9165V132.818H75.456C75.0771 132.818 74.7734 132.935 74.5448 133.171C74.3161 133.406 74.2018 133.739 74.2018 134.17V137.403H73.467ZM78.5504 137.403V130.104H79.2363L83.5181 136.247H83.2535V130.104H84.0374V137.403H83.3515L79.0697 131.221H79.3342V137.403H78.5504ZM87.176 137.521C86.8428 137.521 86.5456 137.459 86.2844 137.335C86.0231 137.204 85.8173 137.028 85.6671 136.806C85.5168 136.584 85.4417 136.329 85.4417 136.041C85.4417 135.767 85.5005 135.519 85.6181 135.297C85.7357 135.068 85.9186 134.875 86.1668 134.719C86.415 134.562 86.7318 134.451 87.1172 134.385L89.1748 134.043V134.709L87.2936 135.022C86.9147 135.088 86.6404 135.209 86.4705 135.385C86.3072 135.561 86.2256 135.77 86.2256 136.012C86.2256 136.247 86.317 136.446 86.4999 136.61C86.6893 136.773 86.931 136.855 87.225 136.855C87.5842 136.855 87.8978 136.78 88.1656 136.629C88.4334 136.472 88.6424 136.263 88.7927 136.002C88.9429 135.741 89.018 135.45 89.018 135.13V133.798C89.018 133.484 88.9037 133.229 88.6751 133.033C88.4465 132.837 88.1493 132.739 87.7835 132.739C87.4634 132.739 87.1825 132.821 86.9408 132.984C86.6991 133.141 86.5195 133.347 86.4019 133.602L85.7357 133.239C85.8336 133.017 85.9871 132.815 86.1962 132.632C86.4117 132.449 86.6567 132.305 86.931 132.2C87.2054 132.089 87.4895 132.034 87.7835 132.034C88.1689 132.034 88.5085 132.109 88.8025 132.259C89.103 132.41 89.3348 132.619 89.4981 132.886C89.668 133.148 89.7529 133.451 89.7529 133.798V137.403H89.018V136.355L89.1258 136.463C89.0344 136.659 88.8907 136.838 88.6947 137.002C88.5053 137.158 88.2799 137.286 88.0186 137.384C87.7639 137.475 87.483 137.521 87.176 137.521ZM91.2644 137.403V132.152H91.9993V133.151L91.8817 133.004C92.0254 132.697 92.2377 132.459 92.5186 132.289C92.806 132.119 93.1195 132.034 93.4592 132.034C93.8642 132.034 94.23 132.148 94.5566 132.377C94.8832 132.605 95.1151 132.903 95.2523 133.268L95.0465 133.278C95.1772 132.873 95.4025 132.566 95.7226 132.357C96.0492 132.142 96.4085 132.034 96.8004 132.034C97.1531 132.034 97.4765 132.119 97.7704 132.289C98.0709 132.459 98.3093 132.694 98.4857 132.994C98.6686 133.288 98.76 133.621 98.76 133.994V137.403H98.0252V134.278C98.0252 133.958 97.9664 133.687 97.8488 133.464C97.7377 133.242 97.5842 133.073 97.3883 132.955C97.1923 132.831 96.967 132.769 96.7122 132.769C96.464 132.769 96.2386 132.831 96.0361 132.955C95.8336 133.073 95.6736 133.246 95.556 133.474C95.4384 133.696 95.3797 133.964 95.3797 134.278V137.403H94.6448V134.278C94.6448 133.958 94.586 133.687 94.4684 133.464C94.3574 133.242 94.2039 133.073 94.0079 132.955C93.8119 132.831 93.5866 132.769 93.3318 132.769C93.0771 132.769 92.8485 132.831 92.646 132.955C92.45 133.073 92.2932 133.246 92.1757 133.474C92.0581 133.696 91.9993 133.964 91.9993 134.278V137.403H91.2644ZM102.554 137.521C102.064 137.521 101.62 137.403 101.221 137.168C100.829 136.926 100.519 136.597 100.291 136.179C100.062 135.76 99.9476 135.287 99.9476 134.758C99.9476 134.229 100.059 133.762 100.281 133.357C100.503 132.945 100.803 132.622 101.182 132.387C101.568 132.152 101.999 132.034 102.476 132.034C102.854 132.034 103.191 132.106 103.485 132.249C103.785 132.387 104.04 132.576 104.249 132.818C104.458 133.053 104.618 133.321 104.729 133.621C104.84 133.915 104.896 134.219 104.896 134.532C104.896 134.598 104.892 134.673 104.886 134.758C104.879 134.836 104.87 134.918 104.856 135.003H100.418V134.317H104.435L104.082 134.611C104.141 134.252 104.099 133.932 103.955 133.651C103.818 133.363 103.619 133.138 103.357 132.975C103.096 132.805 102.802 132.72 102.476 132.72C102.149 132.72 101.845 132.805 101.564 132.975C101.29 133.144 101.074 133.383 100.918 133.69C100.761 133.99 100.699 134.35 100.731 134.768C100.699 135.186 100.764 135.551 100.927 135.865C101.097 136.172 101.326 136.41 101.613 136.58C101.907 136.75 102.221 136.835 102.554 136.835C102.939 136.835 103.263 136.744 103.524 136.561C103.785 136.378 103.997 136.149 104.161 135.875L104.788 136.208C104.683 136.443 104.523 136.662 104.308 136.864C104.092 137.06 103.834 137.22 103.534 137.345C103.24 137.462 102.913 137.521 102.554 137.521Z" fill="white"/>
<path d="M23.4614 154.54C22.9203 154.54 22.4174 154.441 21.9525 154.243C21.4952 154.045 21.099 153.771 20.7636 153.42C20.4359 153.062 20.1959 152.647 20.0435 152.174L21.3352 151.614C21.541 152.102 21.8382 152.487 22.2268 152.769C22.6155 153.043 23.0537 153.18 23.5414 153.18C23.8158 153.18 24.052 153.138 24.2502 153.054C24.4559 152.963 24.6121 152.841 24.7188 152.689C24.8331 152.536 24.8903 152.353 24.8903 152.14C24.8903 151.888 24.8141 151.683 24.6617 151.523C24.5169 151.355 24.2959 151.225 23.9987 151.134L22.364 150.608C21.701 150.402 21.2018 150.094 20.8665 149.682C20.5312 149.271 20.3635 148.787 20.3635 148.23C20.3635 147.743 20.4817 147.312 20.7179 146.939C20.9618 146.565 21.2971 146.276 21.7239 146.07C22.1582 145.857 22.6536 145.75 23.2099 145.75C23.7205 145.75 24.1892 145.841 24.6159 146.024C25.0427 146.2 25.4085 146.447 25.7133 146.767C26.0258 147.08 26.2582 147.449 26.4106 147.876L25.1304 148.448C24.9627 148.021 24.7112 147.693 24.3759 147.465C24.0406 147.228 23.6519 147.11 23.2099 147.11C22.9508 147.11 22.7222 147.156 22.524 147.247C22.3259 147.331 22.1697 147.453 22.0554 147.613C21.9487 147.766 21.8953 147.949 21.8953 148.162C21.8953 148.398 21.9715 148.608 22.1239 148.791C22.2764 148.966 22.5088 149.103 22.8213 149.202L24.3873 149.694C25.0656 149.915 25.5724 150.22 25.9077 150.608C26.2506 150.997 26.4221 151.477 26.4221 152.048C26.4221 152.536 26.2963 152.967 26.0448 153.34C25.7934 153.714 25.4466 154.007 25.0046 154.22C24.5626 154.434 24.0482 154.54 23.4614 154.54ZM27.6962 154.403V145.75H29.1937V149.408L28.9879 149.191C29.1327 148.817 29.369 148.535 29.6967 148.345C30.032 148.147 30.4206 148.048 30.8626 148.048C31.3199 148.048 31.7238 148.147 32.0744 148.345C32.4325 148.543 32.7107 148.821 32.9088 149.179C33.107 149.53 33.206 149.938 33.206 150.402V154.403H31.7086V150.757C31.7086 150.482 31.6552 150.246 31.5485 150.048C31.4418 149.85 31.2932 149.697 31.1027 149.591C30.9198 149.476 30.7026 149.419 30.4511 149.419C30.2073 149.419 29.9901 149.476 29.7995 149.591C29.609 149.697 29.4604 149.85 29.3537 150.048C29.247 150.246 29.1937 150.482 29.1937 150.757V154.403H27.6962ZM36.3585 154.54C35.9241 154.54 35.5468 154.468 35.2268 154.323C34.9067 154.179 34.659 153.973 34.4837 153.706C34.3085 153.432 34.2208 153.115 34.2208 152.757C34.2208 152.414 34.297 152.109 34.4495 151.843C34.6019 151.568 34.8381 151.34 35.1582 151.157C35.4783 150.974 35.8822 150.844 36.3699 150.768L38.4046 150.437V151.58L36.6557 151.877C36.3585 151.93 36.1375 152.026 35.9927 152.163C35.8479 152.3 35.7755 152.479 35.7755 152.7C35.7755 152.913 35.8555 153.085 36.0155 153.214C36.1832 153.336 36.3889 153.397 36.6328 153.397C36.9453 153.397 37.2196 153.333 37.4559 153.203C37.6997 153.066 37.8864 152.879 38.016 152.643C38.1532 152.407 38.2217 152.148 38.2217 151.866V150.265C38.2217 149.999 38.1151 149.777 37.9017 149.602C37.6959 149.419 37.4216 149.328 37.0786 149.328C36.7586 149.328 36.4728 149.416 36.2213 149.591C35.9774 149.758 35.7983 149.983 35.684 150.265L34.4609 149.671C34.5828 149.343 34.7733 149.061 35.0324 148.825C35.2992 148.581 35.6116 148.391 35.9698 148.253C36.328 148.116 36.7166 148.048 37.1358 148.048C37.6464 148.048 38.096 148.143 38.4847 148.333C38.8733 148.516 39.1743 148.775 39.3877 149.111C39.6087 149.438 39.7192 149.823 39.7192 150.265V154.403H38.3018V153.34L38.6218 153.317C38.4618 153.584 38.2713 153.809 38.0503 153.992C37.8293 154.167 37.5778 154.304 37.2958 154.403C37.0139 154.495 36.7014 154.54 36.3585 154.54ZM44.0983 154.54C43.481 154.54 42.9247 154.4 42.4293 154.118C41.9416 153.828 41.5567 153.439 41.2748 152.952C40.9928 152.456 40.8518 151.9 40.8518 151.283C40.8518 150.665 40.9928 150.113 41.2748 149.625C41.5567 149.137 41.9416 148.753 42.4293 148.471C42.9247 148.189 43.481 148.048 44.0983 148.048C44.5403 148.048 44.9518 148.128 45.3328 148.288C45.7139 148.44 46.0416 148.653 46.3159 148.928C46.5979 149.195 46.7998 149.515 46.9218 149.888L45.6072 150.46C45.4929 150.147 45.2985 149.896 45.0242 149.705C44.7575 149.515 44.4488 149.419 44.0983 149.419C43.7706 149.419 43.4772 149.499 43.2181 149.659C42.9666 149.819 42.7684 150.04 42.6236 150.322C42.4789 150.604 42.4065 150.928 42.4065 151.294C42.4065 151.66 42.4789 151.984 42.6236 152.266C42.7684 152.548 42.9666 152.769 43.2181 152.929C43.4772 153.089 43.7706 153.169 44.0983 153.169C44.4565 153.169 44.7689 153.073 45.0356 152.883C45.3024 152.692 45.4929 152.437 45.6072 152.117L46.9218 152.712C46.7998 153.062 46.6017 153.378 46.3274 153.66C46.053 153.935 45.7253 154.152 45.3443 154.312C44.9632 154.464 44.5479 154.54 44.0983 154.54ZM48.058 154.403V145.75H49.5555V151.42L48.9839 151.248L51.9103 148.185H53.7736L51.4759 150.688L53.8193 154.403H52.1047L50.0699 151.18L50.9615 150.997L49.0868 153.009L49.5555 152.094V154.403H48.058ZM54.6555 154.403V145.75H56.153V154.403H54.6555ZM60.4849 154.54C59.8447 154.54 59.2846 154.396 58.8045 154.106C58.3244 153.817 57.951 153.424 57.6842 152.929C57.4175 152.433 57.2842 151.885 57.2842 151.283C57.2842 150.658 57.4175 150.105 57.6842 149.625C57.9586 149.137 58.3282 148.753 58.7931 148.471C59.2656 148.189 59.7914 148.048 60.3706 148.048C60.8583 148.048 61.2851 148.128 61.6509 148.288C62.0243 148.448 62.3406 148.669 62.5997 148.951C62.8588 149.233 63.0569 149.556 63.1941 149.922C63.3313 150.28 63.3998 150.669 63.3998 151.088C63.3998 151.195 63.3922 151.305 63.377 151.42C63.3694 151.534 63.3503 151.633 63.3198 151.717H58.5187V150.574H62.4739L61.7652 151.111C61.8338 150.761 61.8147 150.448 61.708 150.174C61.609 149.899 61.4413 149.682 61.2051 149.522C60.9764 149.362 60.6983 149.282 60.3706 149.282C60.0581 149.282 59.78 149.362 59.5361 149.522C59.2922 149.675 59.1055 149.903 58.976 150.208C58.854 150.505 58.8083 150.867 58.8388 151.294C58.8083 151.675 58.8578 152.014 58.9874 152.311C59.1246 152.601 59.3227 152.826 59.5818 152.986C59.8486 153.146 60.1534 153.226 60.4963 153.226C60.8393 153.226 61.1288 153.154 61.3651 153.009C61.609 152.864 61.7995 152.67 61.9366 152.426L63.1484 153.02C63.0264 153.317 62.8359 153.58 62.5768 153.809C62.3177 154.038 62.009 154.217 61.6509 154.346C61.3003 154.476 60.9117 154.54 60.4849 154.54ZM67.3699 154.472C66.6688 154.472 66.1239 154.281 65.7353 153.9C65.3542 153.512 65.1637 152.967 65.1637 152.266V149.522H64.0892V148.185H64.2035C64.5083 148.185 64.7446 148.105 64.9122 147.945C65.0799 147.785 65.1637 147.552 65.1637 147.247V146.767H66.6612V148.185H68.0901V149.522H66.6612V152.186C66.6612 152.391 66.6955 152.567 66.7641 152.712C66.8403 152.856 66.9546 152.967 67.107 153.043C67.2671 153.119 67.469 153.157 67.7129 153.157C67.7662 153.157 67.8272 153.154 67.8958 153.146C67.972 153.138 68.0444 153.131 68.113 153.123V154.403C68.0063 154.419 67.8844 154.434 67.7472 154.449C67.61 154.464 67.4843 154.472 67.3699 154.472ZM72.242 154.54C71.6323 154.54 71.076 154.4 70.573 154.118C70.0777 153.836 69.6814 153.451 69.3842 152.963C69.0946 152.475 68.9498 151.919 68.9498 151.294C68.9498 150.669 69.0946 150.113 69.3842 149.625C69.6814 149.137 70.0777 148.753 70.573 148.471C71.0684 148.189 71.6247 148.048 72.242 148.048C72.8516 148.048 73.4041 148.189 73.8995 148.471C74.3948 148.753 74.7873 149.137 75.0769 149.625C75.3741 150.105 75.5227 150.662 75.5227 151.294C75.5227 151.919 75.3741 152.475 75.0769 152.963C74.7797 153.451 74.3834 153.836 73.8881 154.118C73.3927 154.4 72.844 154.54 72.242 154.54ZM72.242 153.169C72.5773 153.169 72.8707 153.089 73.1222 152.929C73.3813 152.769 73.5832 152.548 73.728 152.266C73.8804 151.976 73.9566 151.652 73.9566 151.294C73.9566 150.928 73.8804 150.608 73.728 150.334C73.5832 150.052 73.3813 149.831 73.1222 149.671C72.8707 149.503 72.5773 149.419 72.242 149.419C71.899 149.419 71.598 149.503 71.3389 149.671C71.0798 149.831 70.874 150.052 70.7216 150.334C70.5768 150.608 70.5044 150.928 70.5044 151.294C70.5044 151.652 70.5768 151.976 70.7216 152.266C70.874 152.548 71.0798 152.769 71.3389 152.929C71.598 153.089 71.899 153.169 72.242 153.169ZM76.6583 154.403V148.185H78.0644V149.408L77.9501 149.191C78.0948 148.817 78.3311 148.535 78.6588 148.345C78.9941 148.147 79.3828 148.048 79.8248 148.048C80.282 148.048 80.6859 148.147 81.0365 148.345C81.3947 148.543 81.6728 148.821 81.871 149.179C82.0691 149.53 82.1682 149.938 82.1682 150.402V154.403H80.6707V150.757C80.6707 150.482 80.6173 150.246 80.5106 150.048C80.4039 149.85 80.2553 149.697 80.0648 149.591C79.8819 149.476 79.6647 149.419 79.4132 149.419C79.1694 149.419 78.9522 149.476 78.7617 149.591C78.5711 149.697 78.4225 149.85 78.3159 150.048C78.2092 150.246 78.1558 150.482 78.1558 150.757V154.403H76.6583Z" fill="white"/>
<path d="M134.3 137.403V130.104H139.003V130.839H135.084V133.376H138.807V134.111H135.084V136.668H139.003V137.403H134.3ZM139.545 137.403L141.387 134.777L139.555 132.152H140.456L142.082 134.513H141.583L143.199 132.152H144.101L142.269 134.777L144.101 137.403H143.199L141.583 135.042H142.082L140.456 137.403H139.545ZM144.966 139.363V132.152H145.701V133.327L145.583 133.122C145.792 132.788 146.07 132.524 146.416 132.328C146.769 132.132 147.171 132.034 147.621 132.034C148.118 132.034 148.559 132.155 148.944 132.396C149.336 132.632 149.643 132.955 149.865 133.366C150.094 133.778 150.208 134.248 150.208 134.777C150.208 135.3 150.094 135.77 149.865 136.188C149.643 136.6 149.336 136.926 148.944 137.168C148.559 137.403 148.118 137.521 147.621 137.521C147.171 137.521 146.762 137.42 146.397 137.217C146.037 137.008 145.766 136.714 145.583 136.335L145.701 136.228V139.363H144.966ZM147.582 136.786C147.935 136.786 148.248 136.698 148.523 136.521C148.804 136.345 149.023 136.107 149.179 135.806C149.343 135.499 149.424 135.156 149.424 134.777C149.424 134.392 149.343 134.049 149.179 133.749C149.023 133.448 148.804 133.21 148.523 133.033C148.248 132.857 147.935 132.769 147.582 132.769C147.229 132.769 146.909 132.857 146.622 133.033C146.341 133.21 146.116 133.451 145.946 133.758C145.783 134.059 145.701 134.399 145.701 134.777C145.701 135.156 145.783 135.499 145.946 135.806C146.116 136.107 146.341 136.345 146.622 136.521C146.909 136.698 147.229 136.786 147.582 136.786ZM151.501 137.403V132.152H152.236V137.403H151.501ZM151.501 131.181V130.104H152.236V131.181H151.501ZM153.74 137.403V132.152H154.475V133.014L154.377 132.886C154.501 132.638 154.688 132.442 154.936 132.298C155.191 132.155 155.498 132.083 155.857 132.083H156.19V132.818H155.729C155.351 132.818 155.047 132.935 154.818 133.171C154.59 133.406 154.475 133.739 154.475 134.17V137.403H153.74ZM159.442 137.521C158.952 137.521 158.508 137.403 158.109 137.168C157.717 136.926 157.407 136.597 157.179 136.179C156.95 135.76 156.836 135.287 156.836 134.758C156.836 134.229 156.947 133.762 157.169 133.357C157.391 132.945 157.691 132.622 158.07 132.387C158.456 132.152 158.887 132.034 159.364 132.034C159.742 132.034 160.079 132.106 160.373 132.249C160.673 132.387 160.928 132.576 161.137 132.818C161.346 133.053 161.506 133.321 161.617 133.621C161.728 133.915 161.784 134.219 161.784 134.532C161.784 134.598 161.78 134.673 161.774 134.758C161.767 134.836 161.758 134.918 161.744 135.003H157.306V134.317H161.323L160.97 134.611C161.029 134.252 160.987 133.932 160.843 133.651C160.706 133.363 160.507 133.138 160.245 132.975C159.984 132.805 159.69 132.72 159.364 132.72C159.037 132.72 158.733 132.805 158.452 132.975C158.178 133.144 157.962 133.383 157.806 133.69C157.649 133.99 157.587 134.35 157.619 134.768C157.587 135.186 157.652 135.551 157.815 135.865C157.985 136.172 158.214 136.41 158.501 136.58C158.795 136.75 159.109 136.835 159.442 136.835C159.827 136.835 160.151 136.744 160.412 136.561C160.673 136.378 160.886 136.149 161.049 135.875L161.676 136.208C161.571 136.443 161.411 136.662 161.196 136.864C160.98 137.06 160.722 137.22 160.422 137.345C160.128 137.462 159.801 137.521 159.442 137.521ZM165.45 137.521C164.961 137.521 164.52 137.403 164.128 137.168C163.736 136.926 163.426 136.6 163.197 136.188C162.975 135.77 162.864 135.3 162.864 134.777C162.864 134.248 162.975 133.778 163.197 133.366C163.426 132.955 163.733 132.632 164.118 132.396C164.51 132.155 164.954 132.034 165.45 132.034C165.901 132.034 166.303 132.132 166.656 132.328C167.008 132.524 167.286 132.788 167.488 133.122L167.371 133.327V129.986H168.106V137.403H167.371V136.228L167.488 136.335C167.306 136.714 167.031 137.008 166.665 137.217C166.306 137.42 165.901 137.521 165.45 137.521ZM165.49 136.786C165.842 136.786 166.159 136.698 166.44 136.521C166.728 136.345 166.953 136.107 167.116 135.806C167.286 135.499 167.371 135.156 167.371 134.777C167.371 134.399 167.286 134.059 167.116 133.758C166.953 133.451 166.728 133.21 166.44 133.033C166.159 132.857 165.842 132.769 165.49 132.769C165.143 132.769 164.83 132.857 164.549 133.033C164.268 133.21 164.046 133.448 163.883 133.749C163.726 134.049 163.648 134.392 163.648 134.777C163.648 135.156 163.726 135.499 163.883 135.806C164.046 136.107 164.265 136.345 164.539 136.521C164.82 136.698 165.137 136.786 165.49 136.786ZM171.387 137.403V130.104H173.788C174.513 130.104 175.143 130.254 175.679 130.554C176.215 130.848 176.629 131.27 176.923 131.818C177.217 132.361 177.364 133.004 177.364 133.749C177.364 134.487 177.217 135.13 176.923 135.679C176.629 136.228 176.215 136.652 175.679 136.953C175.143 137.253 174.513 137.403 173.788 137.403H171.387ZM172.171 136.668H173.788C174.35 136.668 174.836 136.551 175.248 136.316C175.659 136.074 175.976 135.734 176.198 135.297C176.427 134.859 176.541 134.343 176.541 133.749C176.541 133.154 176.427 132.641 176.198 132.21C175.97 131.773 175.65 131.436 175.238 131.201C174.826 130.959 174.343 130.839 173.788 130.839H172.171V136.668ZM179.975 137.521C179.642 137.521 179.344 137.459 179.083 137.335C178.822 137.204 178.616 137.028 178.466 136.806C178.315 136.584 178.24 136.329 178.24 136.041C178.24 135.767 178.299 135.519 178.417 135.297C178.534 135.068 178.717 134.875 178.965 134.719C179.214 134.562 179.53 134.451 179.916 134.385L181.973 134.043V134.709L180.092 135.022C179.713 135.088 179.439 135.209 179.269 135.385C179.106 135.561 179.024 135.77 179.024 136.012C179.024 136.247 179.116 136.446 179.299 136.61C179.488 136.773 179.73 136.855 180.024 136.855C180.383 136.855 180.696 136.78 180.964 136.629C181.232 136.472 181.441 136.263 181.591 136.002C181.742 135.741 181.817 135.45 181.817 135.13V133.798C181.817 133.484 181.702 133.229 181.474 133.033C181.245 132.837 180.948 132.739 180.582 132.739C180.262 132.739 179.981 132.821 179.739 132.984C179.498 133.141 179.318 133.347 179.201 133.602L178.534 133.239C178.632 133.017 178.786 132.815 178.995 132.632C179.21 132.449 179.455 132.305 179.73 132.2C180.004 132.089 180.288 132.034 180.582 132.034C180.968 132.034 181.307 132.109 181.601 132.259C181.902 132.41 182.134 132.619 182.297 132.886C182.467 133.148 182.552 133.451 182.552 133.798V137.403H181.817V136.355L181.924 136.463C181.833 136.659 181.689 136.838 181.493 137.002C181.304 137.158 181.079 137.286 180.817 137.384C180.563 137.475 180.282 137.521 179.975 137.521ZM185.976 137.462C185.506 137.462 185.143 137.325 184.888 137.051C184.634 136.776 184.506 136.384 184.506 135.875V132.886H183.536V132.152H183.781C184.003 132.152 184.18 132.08 184.31 131.936C184.441 131.786 184.506 131.6 184.506 131.377V130.937H185.241V132.152H186.397V132.886H185.241V135.875C185.241 136.051 185.267 136.208 185.32 136.345C185.372 136.476 185.46 136.58 185.584 136.659C185.715 136.737 185.888 136.776 186.103 136.776C186.156 136.776 186.218 136.773 186.29 136.766C186.361 136.76 186.423 136.753 186.476 136.747V137.403C186.397 137.423 186.309 137.436 186.211 137.443C186.113 137.456 186.035 137.462 185.976 137.462ZM189.965 137.521C189.476 137.521 189.031 137.403 188.633 137.168C188.241 136.926 187.931 136.597 187.702 136.179C187.473 135.76 187.359 135.287 187.359 134.758C187.359 134.229 187.47 133.762 187.692 133.357C187.914 132.945 188.215 132.622 188.594 132.387C188.979 132.152 189.41 132.034 189.887 132.034C190.266 132.034 190.602 132.106 190.896 132.249C191.197 132.387 191.452 132.576 191.661 132.818C191.87 133.053 192.03 133.321 192.141 133.621C192.252 133.915 192.307 134.219 192.307 134.532C192.307 134.598 192.304 134.673 192.297 134.758C192.291 134.836 192.281 134.918 192.268 135.003H187.829V134.317H191.847L191.494 134.611C191.553 134.252 191.51 133.932 191.367 133.651C191.229 133.363 191.03 133.138 190.769 132.975C190.508 132.805 190.214 132.72 189.887 132.72C189.56 132.72 189.257 132.805 188.976 132.975C188.702 133.144 188.486 133.383 188.329 133.69C188.172 133.99 188.11 134.35 188.143 134.768C188.11 135.186 188.176 135.551 188.339 135.865C188.509 136.172 188.737 136.41 189.025 136.58C189.319 136.75 189.632 136.835 189.965 136.835C190.351 136.835 190.674 136.744 190.936 136.561C191.197 136.378 191.409 136.149 191.572 135.875L192.199 136.208C192.095 136.443 191.935 136.662 191.719 136.864C191.504 137.06 191.246 137.22 190.945 137.345C190.651 137.462 190.325 137.521 189.965 137.521Z" fill="white"/>
<path d="M135.415 154.403V147.213H133.769V145.887H136.97V154.403H135.415ZM142.095 154.54C141.416 154.54 140.822 154.358 140.311 153.992C139.801 153.626 139.401 153.112 139.111 152.449C138.829 151.786 138.688 151.016 138.688 150.139C138.688 149.255 138.829 148.486 139.111 147.83C139.393 147.175 139.789 146.664 140.3 146.299C140.81 145.933 141.405 145.75 142.083 145.75C142.777 145.75 143.375 145.933 143.878 146.299C144.388 146.664 144.789 147.179 145.078 147.842C145.368 148.497 145.513 149.263 145.513 150.139C145.513 151.016 145.368 151.786 145.078 152.449C144.796 153.104 144.4 153.618 143.889 153.992C143.379 154.358 142.78 154.54 142.095 154.54ZM142.106 153.123C142.495 153.123 142.826 153.005 143.101 152.769C143.375 152.525 143.584 152.182 143.729 151.74C143.882 151.29 143.958 150.757 143.958 150.139C143.958 149.522 143.882 148.993 143.729 148.551C143.584 148.101 143.371 147.758 143.089 147.522C142.815 147.285 142.479 147.167 142.083 147.167C141.702 147.167 141.374 147.285 141.1 147.522C140.826 147.758 140.612 148.101 140.46 148.551C140.315 148.993 140.243 149.522 140.243 150.139C140.243 150.749 140.315 151.279 140.46 151.728C140.612 152.17 140.826 152.513 141.1 152.757C141.382 153.001 141.717 153.123 142.106 153.123ZM146.324 155.775L150.119 146.344H151.754L147.959 155.775H146.324ZM152.45 154.403V153.226L154.759 150.814C155.216 150.334 155.567 149.953 155.81 149.671C156.062 149.381 156.237 149.134 156.336 148.928C156.435 148.722 156.485 148.512 156.485 148.299C156.485 147.941 156.371 147.659 156.142 147.453C155.921 147.247 155.635 147.145 155.285 147.145C154.919 147.145 154.603 147.251 154.336 147.465C154.069 147.67 153.875 147.975 153.753 148.379L152.393 147.956C152.484 147.507 152.671 147.118 152.953 146.79C153.235 146.455 153.578 146.2 153.981 146.024C154.393 145.841 154.827 145.75 155.285 145.75C155.833 145.75 156.313 145.849 156.725 146.047C157.144 146.245 157.468 146.523 157.697 146.882C157.933 147.24 158.051 147.659 158.051 148.139C158.051 148.444 157.994 148.745 157.88 149.042C157.765 149.339 157.594 149.644 157.365 149.957C157.137 150.261 156.839 150.604 156.473 150.985L154.473 153.089H158.165V154.403H152.45ZM162.357 154.54C161.74 154.54 161.202 154.426 160.745 154.198C160.295 153.961 159.945 153.645 159.693 153.249C159.45 152.852 159.328 152.418 159.328 151.946C159.328 151.389 159.476 150.921 159.773 150.54C160.071 150.151 160.501 149.865 161.065 149.682L160.974 150.059C160.57 149.93 160.25 149.678 160.014 149.305C159.785 148.932 159.671 148.52 159.671 148.07C159.671 147.621 159.785 147.221 160.014 146.87C160.242 146.52 160.558 146.245 160.962 146.047C161.366 145.849 161.831 145.75 162.357 145.75C162.875 145.75 163.332 145.849 163.729 146.047C164.133 146.245 164.449 146.52 164.677 146.87C164.914 147.221 165.032 147.621 165.032 148.07C165.032 148.528 164.914 148.943 164.677 149.316C164.449 149.682 164.133 149.934 163.729 150.071L163.649 149.671C164.213 149.869 164.643 150.162 164.94 150.551C165.238 150.932 165.386 151.401 165.386 151.957C165.386 152.43 165.26 152.864 165.009 153.26C164.765 153.649 164.415 153.961 163.957 154.198C163.508 154.426 162.974 154.54 162.357 154.54ZM162.357 153.226C162.654 153.226 162.913 153.173 163.134 153.066C163.355 152.952 163.527 152.795 163.649 152.597C163.771 152.391 163.832 152.159 163.832 151.9C163.832 151.633 163.771 151.405 163.649 151.214C163.527 151.016 163.355 150.863 163.134 150.757C162.913 150.642 162.654 150.585 162.357 150.585C162.06 150.585 161.801 150.642 161.58 150.757C161.366 150.863 161.199 151.016 161.077 151.214C160.955 151.405 160.894 151.633 160.894 151.9C160.894 152.159 160.955 152.391 161.077 152.597C161.199 152.795 161.366 152.952 161.58 153.066C161.801 153.173 162.06 153.226 162.357 153.226ZM162.357 149.271C162.578 149.271 162.772 149.221 162.94 149.122C163.108 149.023 163.237 148.893 163.329 148.733C163.428 148.566 163.477 148.375 163.477 148.162C163.477 147.949 163.428 147.762 163.329 147.602C163.237 147.434 163.108 147.305 162.94 147.213C162.772 147.114 162.578 147.064 162.357 147.064C162.136 147.064 161.938 147.114 161.762 147.213C161.595 147.305 161.461 147.434 161.362 147.602C161.271 147.762 161.225 147.949 161.225 148.162C161.225 148.375 161.271 148.566 161.362 148.733C161.461 148.893 161.595 149.023 161.762 149.122C161.938 149.221 162.136 149.271 162.357 149.271Z" fill="white"/>
<circle cx="232.709" cy="142.403" r="11.4312" fill="#E33A24"/>
<circle cx="249.041" cy="142.403" r="11.4312" fill="#F8CB2E" fill-opacity="0.8"/>
</g>
<defs>
<linearGradient id="paint0_linear_1020_1249" x1="0" y1="0" x2="280.064" y2="178" gradientUnits="userSpaceOnUse">
<stop stop-color="#CFD7E5"/>
<stop offset="1" stop-color="#2A2ABB"/>
</linearGradient>
<clipPath id="clip0_1020_1249">
<rect width="280.064" height="178" rx="13.0642" fill="white"/>
</clipPath>
</defs>
</svg>
