<svg width="31" height="43" viewBox="0 0 31 43" fill="none" xmlns="http://www.w3.org/2000/svg">
<path d="M13.7324 28.7023V29.942C13.7324 31.44 13.7324 33.0606 13.3063 35.5335L12.0537 35.4173C12.5185 33.0993 12.5185 31.4012 12.5185 29.942V29.7095H5.70022V28.7023H13.7324ZM4.56383 37.4576V36.4375H15.1141V37.4576H4.56383ZM26.4362 33.2091V34.1905H21.7357V35.4948H20.5218V34.1905H15.8471V33.2091H26.4362ZM17.1772 28.6894V27.7467H25.1061V30.4973H18.4169V31.4658H25.3385V32.3955H17.203V29.6062H23.8793V28.6894H17.1772ZM17.2289 38.9556V34.862H18.4427V36.0372H23.8922V34.862H25.1061V38.9556H17.2289ZM18.4427 38H23.8922V36.9669H18.4427V38Z" fill="#C1C8D6"/>
<path fill-rule="evenodd" clip-rule="evenodd" d="M9.43478 10.1087C10.0985 10.1087 10.7558 9.97796 11.369 9.72396C11.9822 9.46995 12.5394 9.09765 13.0087 8.62831C13.4781 8.15897 13.8504 7.60179 14.1044 6.98856C14.3584 6.37534 14.4891 5.71809 14.4891 5.05435C14.4891 4.3906 14.3584 3.73335 14.1044 3.12013C13.8504 2.50691 13.4781 1.94972 13.0087 1.48038C12.5394 1.01104 11.9822 0.638744 11.369 0.38474C10.7558 0.130735 10.0985 -9.89059e-09 9.43478 0C8.09429 1.9975e-08 6.80869 0.53251 5.86082 1.48038C4.91295 2.42826 4.38044 3.71385 4.38044 5.05435C4.38044 6.39484 4.91295 7.68044 5.86082 8.62831C6.80869 9.57619 8.09429 10.1087 9.43478 10.1087ZM10.1087 18.4396C10.1087 16.736 11.1479 14.2142 13.4513 12.3043C12.3151 11.904 10.9875 11.6533 9.43478 11.6533C2.64174 11.6533 0 16.2871 0 18.4396C0 20.5961 5.62448 21.1676 9.43478 21.1676C10.0696 21.1676 10.7557 21.1501 11.4579 21.1137C10.567 20.4034 10.1087 19.5138 10.1087 18.4396Z" fill="#5A6B87" fill-opacity="0.72"/>
<path fill-rule="evenodd" clip-rule="evenodd" d="M21.5652 11.6547C14.7722 11.6547 12.1304 16.2871 12.1304 18.441C12.1304 20.5948 17.7549 21.169 21.5652 21.169C25.3755 21.169 31 20.5948 31 18.441C31 16.2871 28.3583 11.6547 21.5652 11.6547ZM21.5652 10.1087C22.229 10.1087 22.8862 9.97796 23.4994 9.72396C24.1126 9.46995 24.6698 9.09765 25.1392 8.62831C25.6085 8.15897 25.9808 7.60179 26.2348 6.98856C26.4888 6.37534 26.6196 5.71809 26.6196 5.05435C26.6196 4.3906 26.4888 3.73335 26.2348 3.12013C25.9808 2.50691 25.6085 1.94972 25.1392 1.48038C24.6698 1.01104 24.1126 0.638744 23.4994 0.38474C22.8862 0.130735 22.229 -9.89059e-09 21.5652 0C20.2247 1.9975e-08 18.9391 0.53251 17.9913 1.48038C17.0434 2.42826 16.5109 3.71385 16.5109 5.05435C16.5109 6.39485 17.0434 7.68044 17.9913 8.62831C18.9391 9.57619 20.2247 10.1087 21.5652 10.1087Z" fill="#5A6B87"/>
</svg>
