<svg width="29" height="48" viewBox="0 0 29 48" fill="none" xmlns="http://www.w3.org/2000/svg">
<path fill-rule="evenodd" clip-rule="evenodd" d="M25.3276 9.8622L15.1733 1.78751C14.9608 1.6182 14.6972 1.526 14.4255 1.526C14.1539 1.526 13.8903 1.6182 13.6778 1.78751L3.52223 9.8622C3.23919 10.0873 3.01059 10.3734 2.85344 10.6992C2.6963 11.0249 2.61467 11.3819 2.61462 11.7435V23.0652C2.61462 23.8303 2.91859 24.5642 3.45965 25.1052C4.00071 25.6463 4.73455 25.9503 5.49973 25.9503H12.0213V20.2378C12.0213 19.9189 12.1479 19.6132 12.3734 19.3877C12.5988 19.1623 12.9046 19.0356 13.2234 19.0356H15.6277C15.9465 19.0356 16.2522 19.1623 16.4777 19.3877C16.7031 19.6132 16.8298 19.9189 16.8298 20.2378V25.9503H23.3501C24.1153 25.9503 24.8491 25.6463 25.3902 25.1052C25.9313 24.5642 26.2352 23.8303 26.2352 23.0652V11.7447C26.2352 11.3831 26.1536 11.0261 25.9964 10.7004C25.8393 10.3746 25.6107 10.0885 25.3276 9.8634" fill="#C1C8D6"/>
<path d="M18.3858 40.4621V43.8067H10.3924V40.4621H18.3858ZM9.12685 39.6744V38.7058H13.7886V37.9181C11.7418 37.8342 10.5925 37.2854 10.599 36.291C10.5925 35.2128 11.9678 34.6575 14.3955 34.651C16.8362 34.6575 18.1986 35.2128 18.1921 36.291C18.1986 37.2854 17.0686 37.8342 15.0154 37.9181V38.7058H19.6772V39.6744H9.12685ZM9.66921 34.2378V33.2951H13.7886V32.2233H15.0154V33.2951H19.0831V34.2378H9.66921ZM11.6062 42.864H17.1978V41.4048H11.6062V42.864ZM11.9032 36.291C11.8968 36.814 12.7814 37.0917 14.3955 37.0917C16.0226 37.0917 16.8878 36.814 16.8878 36.291C16.8878 35.7616 16.0226 35.5033 14.3955 35.4904C12.7814 35.5033 11.8968 35.7616 11.9032 36.291Z" fill="#C1C8D6"/>
</svg>
