<svg width="301" height="247" viewBox="0 0 301 247" fill="none" xmlns="http://www.w3.org/2000/svg">
<path d="M32.4854 48.293C31.0205 48.293 29.7168 48.0391 28.5742 47.5312C27.4316 47.0234 26.543 46.3203 25.9082 45.4219C25.2734 44.5234 24.9561 43.5078 24.9561 42.375C24.9561 41.4766 25.1465 40.6367 25.5273 39.8555C25.9082 39.0742 26.4258 38.4346 27.0801 37.9365C27.7344 37.4287 28.4619 37.1113 29.2627 36.9844V36.8672C28.5693 36.7109 27.959 36.4033 27.4316 35.9443C26.9141 35.4854 26.5088 34.9238 26.2158 34.2598C25.9229 33.5957 25.7764 32.8828 25.7764 32.1211C25.7764 31.0566 26.0645 30.0996 26.6406 29.25C27.2168 28.3906 28.0127 27.7168 29.0283 27.2285C30.0537 26.7402 31.2061 26.4961 32.4854 26.4961C33.7549 26.4961 34.9023 26.7402 35.9277 27.2285C36.9531 27.7168 37.7539 28.3906 38.3301 29.25C38.916 30.0996 39.2139 31.0566 39.2236 32.1211C39.2139 32.8828 39.0576 33.5957 38.7549 34.2598C38.4619 34.9238 38.0518 35.4854 37.5244 35.9443C36.9971 36.4033 36.3916 36.7109 35.708 36.8672V36.9844C36.499 37.1113 37.2217 37.4287 37.876 37.9365C38.54 38.4346 39.0625 39.0742 39.4434 39.8555C39.834 40.6367 40.0342 41.4766 40.0439 42.375C40.0342 43.5078 39.707 44.5234 39.0625 45.4219C38.4277 46.3203 37.5342 47.0234 36.3818 47.5312C35.2393 48.0391 33.9404 48.293 32.4854 48.293ZM32.4854 45.9785C33.4814 45.9785 34.3506 45.8174 35.0928 45.4951C35.835 45.1729 36.4062 44.7334 36.8066 44.1768C37.207 43.6201 37.4072 42.9707 37.4072 42.2285C37.4072 41.457 37.1973 40.7637 36.7773 40.1484C36.3574 39.5234 35.7715 39.0352 35.0195 38.6836C34.2676 38.332 33.4229 38.1562 32.4854 38.1562C31.5479 38.1562 30.708 38.332 29.9658 38.6836C29.2236 39.0352 28.6377 39.5234 28.208 40.1484C27.7881 40.7637 27.583 41.457 27.5928 42.2285C27.583 42.9707 27.7734 43.6201 28.1641 44.1768C28.5645 44.7334 29.1309 45.1729 29.8633 45.4951C30.6055 45.8174 31.4795 45.9785 32.4854 45.9785ZM32.4854 35.9297C33.2861 35.9297 34.0039 35.7734 34.6387 35.4609C35.2734 35.1484 35.7666 34.7236 36.1182 34.1865C36.4697 33.6494 36.6455 33.0293 36.6455 32.3262C36.6455 31.623 36.4746 31.0029 36.1328 30.4658C35.791 29.9287 35.3027 29.5137 34.668 29.2207C34.0332 28.9277 33.3057 28.7812 32.4854 28.7812C31.6553 28.7812 30.9277 28.9277 30.3027 29.2207C29.6875 29.5137 29.2041 29.9287 28.8525 30.4658C28.501 31.0029 28.3252 31.623 28.3252 32.3262C28.3252 33.0293 28.5059 33.6494 28.8672 34.1865C29.2285 34.7236 29.7217 35.1484 30.3467 35.4609C30.9717 35.7734 31.6846 35.9297 32.4854 35.9297Z" fill="white"/>
<path d="M266.616 29.2793V29.1328H255.396V26.7891H269.341V29.25L259.644 48H256.89L266.616 29.2793Z" fill="white"/>
<path d="M147.559 48.293C146.162 48.293 144.912 48.0586 143.809 47.5898C142.715 47.1211 141.846 46.4619 141.201 45.6123C140.557 44.7529 140.215 43.7715 140.176 42.668H142.842C142.891 43.332 143.125 43.9082 143.545 44.3965C143.975 44.8848 144.531 45.2656 145.215 45.5391C145.908 45.8125 146.68 45.9492 147.529 45.9492C148.457 45.9492 149.287 45.793 150.02 45.4805C150.762 45.168 151.338 44.7285 151.748 44.1621C152.158 43.5957 152.363 42.9512 152.363 42.2285C152.354 41.457 152.148 40.7734 151.748 40.1777C151.357 39.5723 150.771 39.1035 149.99 38.7715C149.209 38.4395 148.281 38.2734 147.207 38.2734H145.479V35.959H147.207C148.057 35.959 148.813 35.8076 149.478 35.5049C150.151 35.2021 150.669 34.7773 151.03 34.2305C151.392 33.6738 151.572 33.0391 151.572 32.3262C151.572 31.623 151.411 31.0029 151.089 30.4658C150.767 29.9287 150.308 29.5137 149.712 29.2207C149.116 28.9277 148.418 28.7812 147.617 28.7812C146.855 28.791 146.143 28.9326 145.479 29.2061C144.814 29.4697 144.272 29.8555 143.853 30.3633C143.433 30.8613 143.203 31.4473 143.164 32.1211H140.615C140.654 31.0273 140.996 30.0508 141.641 29.1914C142.285 28.332 143.135 27.668 144.189 27.1992C145.244 26.7305 146.396 26.4961 147.646 26.4961C148.955 26.4961 150.103 26.7549 151.089 27.2725C152.075 27.79 152.827 28.4834 153.345 29.3525C153.872 30.2217 154.131 31.1641 154.121 32.1797C154.131 32.9707 153.989 33.6934 153.696 34.3477C153.413 34.9922 152.998 35.5391 152.451 35.9883C151.904 36.4375 151.26 36.7695 150.518 36.9844V37.1309C151.426 37.2676 152.212 37.5654 152.876 38.0244C153.55 38.4834 154.062 39.0742 154.414 39.7969C154.766 40.5195 154.941 41.3301 154.941 42.2285C154.941 43.3711 154.624 44.4062 153.989 45.334C153.354 46.252 152.471 46.9746 151.338 47.502C150.215 48.0293 148.955 48.293 147.559 48.293Z" fill="white"/>
<path d="M34.915 108H32.249V89.543H32.1318L26.9756 92.9707V90.3047L32.249 86.7891H34.915V108Z" fill="white"/>
<path d="M255.159 106.066L262.396 98.4492C263.343 97.4336 264.065 96.6133 264.563 95.9883C265.071 95.3633 265.457 94.7676 265.721 94.2012C265.984 93.625 266.116 93.0195 266.116 92.3848C266.116 91.6719 265.931 91.0469 265.56 90.5098C265.188 89.9629 264.681 89.5381 264.036 89.2354C263.401 88.9326 262.688 88.7812 261.897 88.7812C261.067 88.7812 260.34 88.9473 259.715 89.2793C259.1 89.6113 258.621 90.0801 258.279 90.6855C257.938 91.2812 257.767 91.9746 257.767 92.7656H255.276C255.267 91.5352 255.55 90.4463 256.126 89.499C256.712 88.5518 257.518 87.8145 258.543 87.2871C259.568 86.7598 260.716 86.4961 261.985 86.4961C263.245 86.4961 264.373 86.7549 265.369 87.2725C266.375 87.79 267.161 88.498 267.728 89.3965C268.294 90.2949 268.577 91.291 268.577 92.3848C268.567 93.1953 268.416 93.9717 268.123 94.7139C267.84 95.4463 267.352 96.2617 266.658 97.1602C265.965 98.0586 264.983 99.1621 263.714 100.471L258.851 105.48V105.656H268.958V108H255.188L255.159 106.066Z" fill="white"/>
<path d="M146.956 108.293C145.696 108.293 144.549 108.049 143.514 107.561C142.488 107.072 141.668 106.403 141.053 105.554C140.447 104.704 140.12 103.742 140.071 102.668H142.62C142.679 103.293 142.908 103.854 143.309 104.353C143.709 104.851 144.227 105.246 144.861 105.539C145.506 105.832 146.204 105.979 146.956 105.979C147.864 105.979 148.675 105.773 149.388 105.363C150.11 104.953 150.677 104.392 151.087 103.679C151.497 102.966 151.702 102.17 151.702 101.291C151.702 100.383 151.492 99.5674 151.072 98.8447C150.652 98.1123 150.066 97.5361 149.314 97.1162C148.562 96.6963 147.718 96.4863 146.78 96.4863C145.853 96.4668 145.057 96.6133 144.393 96.9258C143.729 97.2285 143.206 97.7168 142.825 98.3906H140.276L141.771 86.7891H153.255V89.1328H143.968L143.177 95.3438H143.382C143.87 94.9727 144.451 94.6748 145.125 94.4502C145.809 94.2256 146.517 94.1133 147.249 94.1133C148.577 94.1133 149.778 94.416 150.853 95.0215C151.927 95.627 152.767 96.4766 153.372 97.5703C153.978 98.6543 154.28 99.875 154.28 101.232C154.28 102.58 153.963 103.791 153.328 104.865C152.693 105.939 151.819 106.779 150.706 107.385C149.603 107.99 148.353 108.293 146.956 108.293Z" fill="white"/>
<path d="M32.6758 167.293C31.3086 167.273 30.0488 166.951 28.8965 166.326C27.7441 165.701 26.7969 164.642 26.0547 163.147C25.3125 161.653 24.9414 159.676 24.9414 157.215C24.9414 154.734 25.2686 152.615 25.9229 150.857C26.5771 149.1 27.5049 147.767 28.7061 146.858C29.9072 145.95 31.3379 145.496 32.998 145.496C34.2188 145.496 35.3174 145.73 36.2939 146.199C37.2803 146.668 38.0811 147.332 38.6963 148.191C39.3115 149.041 39.707 150.018 39.8828 151.121H37.2754C37.1094 150.477 36.8359 149.905 36.4551 149.407C36.084 148.909 35.6055 148.523 35.0195 148.25C34.4336 147.977 33.7598 147.84 32.998 147.84C31.8359 147.84 30.835 148.157 29.9951 148.792C29.165 149.427 28.5303 150.354 28.0908 151.575C27.6514 152.786 27.4316 154.236 27.4316 155.926H27.6953C28.1055 155.33 28.5889 154.822 29.1455 154.402C29.7021 153.973 30.3174 153.65 30.9912 153.436C31.6748 153.221 32.3926 153.113 33.1445 153.113C34.3945 153.113 35.5469 153.416 36.6016 154.021C37.6562 154.627 38.4961 155.467 39.1211 156.541C39.7461 157.605 40.0586 158.807 40.0586 160.145C40.0586 161.482 39.751 162.698 39.1357 163.792C38.5205 164.876 37.6514 165.735 36.5283 166.37C35.415 166.995 34.1309 167.303 32.6758 167.293ZM32.6758 164.979C33.5742 164.979 34.3896 164.759 35.1221 164.319C35.8545 163.88 36.4355 163.299 36.8652 162.576C37.2949 161.844 37.5098 161.043 37.5098 160.174C37.5098 159.314 37.3047 158.523 36.8945 157.801C36.4844 157.078 35.9131 156.502 35.1807 156.072C34.4482 155.643 33.6328 155.428 32.7344 155.428C31.8262 155.428 30.9961 155.647 30.2441 156.087C29.502 156.526 28.9062 157.117 28.457 157.859C28.0176 158.592 27.793 159.373 27.7832 160.203C27.7832 161.033 27.998 161.814 28.4277 162.547C28.8574 163.27 29.4434 163.855 30.1855 164.305C30.9277 164.754 31.7578 164.979 32.6758 164.979Z" fill="white"/>
<path d="M262 167.293C260.438 167.293 259.104 166.868 258.001 166.019C256.897 165.169 256.053 163.929 255.467 162.298C254.881 160.667 254.588 158.699 254.588 156.395C254.588 154.119 254.881 152.166 255.467 150.535C256.053 148.895 256.897 147.645 258.001 146.785C259.114 145.926 260.447 145.496 262 145.496C263.543 145.496 264.871 145.926 265.984 146.785C267.098 147.645 267.947 148.895 268.533 150.535C269.119 152.166 269.412 154.119 269.412 156.395C269.412 158.699 269.124 160.667 268.548 162.298C267.972 163.929 267.127 165.169 266.014 166.019C264.9 166.868 263.562 167.293 262 167.293ZM262 164.949C263.016 164.949 263.89 164.617 264.622 163.953C265.354 163.289 265.906 162.317 266.277 161.038C266.648 159.759 266.834 158.211 266.834 156.395C266.834 154.578 266.644 153.025 266.263 151.736C265.882 150.447 265.33 149.466 264.607 148.792C263.885 148.118 263.016 147.781 262 147.781C260.984 147.781 260.115 148.118 259.393 148.792C258.67 149.466 258.113 150.447 257.723 151.736C257.332 153.025 257.137 154.578 257.137 156.395C257.137 158.211 257.332 159.759 257.723 161.038C258.113 162.317 258.665 163.289 259.378 163.953C260.101 164.617 260.975 164.949 262 164.949Z" fill="white"/>
<path d="M139.604 160.496L149.155 145.789H150.737V149.129H149.624L142.446 160.174V160.35H155.366V162.664H139.604V160.496ZM149.888 162.02V160.994V145.789H152.407V167H149.888V162.02Z" fill="white"/>
<path d="M147.354 210.496C148.701 210.516 149.956 210.838 151.118 211.463C152.28 212.088 153.228 213.147 153.96 214.642C154.692 216.126 155.059 218.094 155.059 220.545C155.059 223.025 154.736 225.145 154.092 226.902C153.447 228.66 152.52 229.998 151.309 230.916C150.098 231.834 148.662 232.293 147.002 232.293C145.771 232.293 144.668 232.054 143.691 231.575C142.715 231.097 141.919 230.438 141.304 229.598C140.688 228.748 140.293 227.762 140.117 226.639H142.725C142.881 227.293 143.149 227.869 143.53 228.367C143.911 228.855 144.395 229.241 144.98 229.524C145.566 229.808 146.24 229.949 147.002 229.949C148.154 229.949 149.15 229.627 149.99 228.982C150.83 228.338 151.47 227.41 151.909 226.199C152.358 224.979 152.588 223.514 152.598 221.805H152.305C151.895 222.391 151.411 222.894 150.854 223.313C150.298 223.733 149.683 224.056 149.009 224.28C148.335 224.505 147.627 224.617 146.885 224.617C145.625 224.617 144.463 224.314 143.398 223.709C142.344 223.104 141.504 222.269 140.879 221.204C140.254 220.14 139.941 218.943 139.941 217.615C139.941 216.297 140.249 215.096 140.864 214.012C141.479 212.918 142.349 212.059 143.472 211.434C144.595 210.799 145.889 210.486 147.354 210.496ZM147.354 212.811C146.445 212.811 145.62 213.025 144.878 213.455C144.146 213.885 143.564 214.466 143.135 215.198C142.715 215.931 142.51 216.727 142.52 217.586C142.52 218.455 142.725 219.251 143.135 219.974C143.545 220.687 144.106 221.253 144.819 221.673C145.542 222.093 146.357 222.303 147.266 222.303C148.164 222.303 148.989 222.078 149.741 221.629C150.493 221.18 151.089 220.589 151.528 219.856C151.968 219.124 152.188 218.348 152.188 217.527C152.188 216.717 151.978 215.95 151.558 215.228C151.138 214.495 150.557 213.909 149.814 213.47C149.082 213.03 148.262 212.811 147.354 212.811Z" fill="white"/>
</svg>
