<svg width="89" height="30" viewBox="0 0 89 30" fill="none" xmlns="http://www.w3.org/2000/svg">
<path d="M22.1432 27.7904C20.0901 29.1591 18.0371 29.9739 15.3649 29.9739C12.6275 29.9739 8.91243 28.8007 5.7188 25.9655L6.66385 23.0652C7.12008 23.1629 7.77185 23.1955 8.22808 23.1955C12.4645 23.1955 15.1368 19.122 15.1368 12.1808C15.1368 7.74877 14.0939 4.45738 10.5418 4.45738C7.73926 4.45738 6.40315 7.29254 6.40315 11.7897C6.40315 15.8958 7.25044 17.2645 9.14055 17.9488L8.61914 21.4684C3.17693 21.1425 0.602467 16.8734 0.602467 12.083C0.602467 5.5002 4.38269 0.644569 10.9981 0.644569C17.5157 0.644569 20.97 4.9462 20.97 11.8223C20.97 19.2524 17.5483 23.9776 12.9534 25.5093C13.6051 25.8352 14.2569 25.9655 14.9412 25.9655C16.8639 25.9655 18.5259 25.1182 20.3834 24.2058L22.1432 27.7904ZM33.0635 6.64078H38.2124V15.1463C38.2124 20.2952 40.0048 21.9572 40.0048 21.9572L35.8661 23.2607C35.8661 23.2607 34.7907 22.2179 34.3344 20.2626C33.1939 22.2831 31.0756 23.1955 28.7945 23.1955C25.3727 23.1955 24.1018 20.9795 24.1018 17.5252V6.64078H29.2833V16.8409C29.2833 18.3725 29.5766 19.3827 30.5868 19.3827C31.7926 19.3827 33.0635 17.623 33.0635 14.7878V6.64078ZM56.0916 15.1463C56.0916 20.2952 57.8839 21.9572 57.8839 21.9572L53.7452 23.2607C53.7452 23.2607 52.5721 22.1527 52.181 20.0019C51.4641 22.0224 50.0628 23.1955 47.7164 23.1955C43.4474 23.1955 41.4269 19.9693 41.4269 15.0811C41.4269 10.0951 44.7509 6.41266 49.6066 6.41266C52.3114 6.41266 56.0264 7.35772 56.0916 7.35772V15.1463ZM50.9427 14.2338V10.4536C50.6494 10.3232 49.9976 10.1929 49.6066 10.1929C47.4883 10.1929 46.9017 12.1156 46.9017 14.7552C46.9017 17.1667 46.9995 19.4153 48.5637 19.4153C49.8998 19.4153 50.9427 16.9712 50.9427 14.2338ZM68.9122 23V12.8325C68.9122 11.3335 68.6189 10.2906 67.6087 10.2906C66.4029 10.2906 65.132 11.9852 65.132 14.8204V23H59.9831V14.5271C59.9831 9.37818 58.1907 7.71619 58.1907 7.71619L62.3294 6.41266C62.3294 6.41266 63.3722 7.45548 63.8285 9.37818C64.969 7.35772 67.0873 6.41266 69.401 6.41266C72.7902 6.41266 74.0937 8.66124 74.0937 12.083V23H68.9122ZM76.1024 6.77113H78.7747L79.3287 3.41456L83.7932 2.43691V6.77113H87.6386L87.0195 10.5513H83.7932V17.8185C83.7932 18.7635 84.3146 19.2524 85.2923 19.2524C86.3351 19.2524 87.6386 18.8939 87.6386 18.8939L88.5185 22.3482C87.6386 22.6415 86.107 23.1304 83.891 23.1304C80.6322 23.1304 78.6769 21.9246 78.6769 18.6984V10.5513H76.1024V6.77113Z" fill="white"/>
</svg>
