<svg width="215" height="215" viewBox="0 0 215 215" fill="none" xmlns="http://www.w3.org/2000/svg">
<path d="M23.2432 171.419V151.081H63.9188V191.757H23.2432V171.419ZM58.108 171.419V156.892H29.054V185.946H58.108V171.419ZM34.8648 171.419V162.703H52.2972V180.135H34.8648V171.419ZM75.5405 188.851V185.946H69.7297V174.324H75.5405V156.892H81.3513V151.081H69.7297V145.27H46.4864V139.46H52.2972V133.649H40.6756V145.27H34.8648V139.46H23.2432V133.649H34.8648V122.027H29.054V127.838H23.2432V116.216H34.8648V122.027H40.6756V127.838H46.4864V122.027H52.2972V127.838H63.9188V122.027H58.108V116.216H40.6756V110.405H58.108V104.595H40.6756V98.7838H34.8648V104.595H23.2432V87.1622H29.054V92.973H63.9188V87.1622H58.108V81.3514H46.4864V87.1622H40.6756V81.3514H29.054V69.7298H40.6756V81.3514H46.4864V75.5406H58.108V69.7298H63.9188V75.5406H58.108V81.3514H63.9188V87.1622H69.7297V75.5406H75.5405V69.7298H69.7297V52.2973H81.3513V58.1082H87.1621V63.919H81.3513V69.7298H87.1621V104.595H75.5405V98.7838H69.7297V104.595H63.9188V110.405H58.108V116.216H63.9188V122.027H69.7297V127.838H81.3513V122.027H75.5405V116.216H69.7297V110.405H81.3513V122.027H87.1621V110.405H92.9729V122.027H98.7837V104.595H104.595V98.7838H110.405V104.595H104.595V110.405H110.405V116.216H127.838V110.405H122.027V104.595H116.216V92.973H110.405V87.1622H116.216V81.3514H122.027V75.5406H116.216V69.7298H110.405V81.3514H104.595V75.5406H98.7837V81.3514H92.9729V75.5406H98.7837V69.7298H92.9729V52.2973H87.1621V46.4865H92.9729V52.2973H98.7837V29.0541H104.595V40.6757H116.216V34.8649H110.405V23.2433H122.027V29.0541H116.216V34.8649H127.838V29.0541H133.649V23.2433H145.27V40.6757H133.649V34.8649H127.838V46.4865H133.649V63.919H139.459V58.1082H145.27V87.1622H156.892V81.3514H151.081V69.7298H162.703V87.1622H174.324V81.3514H168.513V69.7298H174.324V81.3514H180.135V75.5406H191.757V87.1622H185.946V81.3514H180.135V87.1622H174.324V104.595H180.135V110.405H174.324V116.216H162.703V122.027H156.892V127.838H145.27V122.027H139.459V116.216H133.649V127.838H139.459V133.649H156.892V139.46H168.513V133.649H162.703V127.838H168.513V122.027H174.324V127.838H180.135V133.649H185.946V122.027H180.135V116.216H191.757V133.649H185.946V145.27H191.757V156.892H185.946V174.324H191.757V180.135H174.324V191.757H156.892V185.946H168.513V180.135H156.892V168.514H151.081V180.135H145.27V185.946H151.081V191.757H139.459V174.324H133.649V185.946H127.838V180.135H122.027V156.892H127.838V174.324H133.649V156.892H139.459V145.27H133.649V139.46H127.838V133.649H133.649V127.838H127.838V122.027H122.027V145.27H127.838V151.081H116.216V162.703H110.405V174.324H116.216V180.135H110.405V185.946H122.027V191.757H110.405V185.946H104.595V180.135H98.7837V191.757H75.5405V188.851ZM92.9729 180.135V174.324H98.7837V156.892H87.1621V162.703H92.9729V168.514H81.3513V174.324H75.5405V180.135H81.3513V185.946H92.9729V180.135ZM174.324 174.324V168.514H180.135V156.892H185.946V151.081H180.135V133.649H174.324V151.081H180.135V156.892H174.324V162.703H168.513V180.135H174.324V174.324ZM145.27 171.419V168.514H139.459V174.324H145.27V171.419ZM110.405 159.797V156.892H104.595V162.703H110.405V159.797ZM162.703 153.987V145.27H145.27V162.703H162.703V153.987ZM151.081 153.987V151.081H156.892V156.892H151.081V153.987ZM104.595 148.176V145.27H116.216V139.46H104.595V133.649H98.7837V139.46H104.595V145.27H92.9729V139.46H87.1621V145.27H81.3513V139.46H75.5405V133.649H69.7297V127.838H63.9188V133.649H58.108V139.46H63.9188V133.649H69.7297V139.46H75.5405V145.27H81.3513V151.081H104.595V148.176ZM87.1621 130.743V127.838H81.3513V133.649H87.1621V130.743ZM116.216 127.838V122.027H104.595V127.838H110.405V133.649H116.216V127.838ZM151.081 119.122V116.216H145.27V122.027H151.081V119.122ZM162.703 113.311V110.405H168.513V92.973H162.703V98.7838H156.892V104.595H151.081V98.7838H139.459V92.973H133.649V87.1622H139.459V69.7298H133.649V63.919H127.838V58.1082H122.027V63.919H116.216V46.4865H122.027V52.2973H127.838V46.4865H122.027V40.6757H116.216V46.4865H110.405V63.919H116.216V69.7298H122.027V63.919H127.838V81.3514H122.027V87.1622H116.216V92.973H122.027V104.595H127.838V98.7838H139.459V104.595H145.27V110.405H156.892V116.216H162.703V113.311ZM156.892 107.5V104.595H162.703V110.405H156.892V107.5ZM63.9188 101.689V98.7838H69.7297V92.973H63.9188V98.7838H58.108V104.595H63.9188V101.689ZM81.3513 90.0676V87.1622H75.5405V92.973H81.3513V90.0676ZM81.3513 61.0136V58.1082H75.5405V63.919H81.3513V61.0136ZM104.595 58.1082V52.2973H98.7837V63.919H104.595V58.1082ZM139.459 31.9595V29.0541H133.649V34.8649H139.459V31.9595ZM185.946 188.851V185.946H191.757V191.757H185.946V188.851ZM185.946 104.595V98.7838H180.135V92.973H185.946V98.7838H191.757V110.405H185.946V104.595ZM23.2432 43.5811V23.2433H63.9188V63.919H23.2432V43.5811ZM58.108 43.5811V29.0541H29.054V58.1082H58.108V43.5811ZM34.8648 43.5811V34.8649H52.2972V52.2973H34.8648V43.5811ZM151.081 43.5811V23.2433H191.757V63.919H151.081V43.5811ZM185.946 43.5811V29.0541H156.892V58.1082H185.946V43.5811ZM162.703 43.5811V34.8649H180.135V52.2973H162.703V43.5811ZM69.7297 43.5811V40.6757H75.5405V46.4865H69.7297V43.5811ZM81.3513 37.7703V34.8649H75.5405V23.2433H81.3513V29.0541H87.1621V23.2433H92.9729V29.0541H87.1621V40.6757H81.3513V37.7703Z" fill="black"/>
</svg>
