<svg width="430" height="61" viewBox="0 0 430 61" fill="none" xmlns="http://www.w3.org/2000/svg">
<path d="M56.3075 25.6746C57.0229 25.6746 57.7013 25.8072 58.3428 26.0724C58.9842 26.3314 59.5516 26.7354 60.045 27.2843C60.5446 27.8332 60.9362 28.5394 61.2199 29.4028C61.5036 30.2663 61.6455 31.2993 61.6455 32.502V32.5205C61.6455 34.0192 61.4265 35.302 60.9886 36.369C60.5569 37.4298 59.9401 38.247 59.1384 38.8206C58.3366 39.388 57.3745 39.6717 56.252 39.6717C55.4317 39.6717 54.6916 39.5237 54.0317 39.2276C53.3779 38.9254 52.8352 38.5122 52.4035 37.988C51.9717 37.4576 51.6849 36.8531 51.5431 36.1747L51.5246 36.0822H53.8652L53.9022 36.1655C54.0193 36.4738 54.1859 36.7452 54.4017 36.9796C54.6238 37.2139 54.889 37.3959 55.1973 37.5254C55.5119 37.6488 55.8634 37.7104 56.252 37.7104C56.9612 37.7104 57.5379 37.5038 57.982 37.0906C58.4322 36.6712 58.7683 36.113 58.9903 35.4161C59.2124 34.713 59.3388 33.9359 59.3696 33.0848C59.3758 32.9985 59.3789 32.9121 59.3789 32.8258C59.3789 32.7333 59.3789 32.6438 59.3789 32.5575L58.9718 30.3372C58.9718 29.8253 58.8516 29.3658 58.611 28.9587C58.3767 28.5455 58.0591 28.2186 57.6582 27.9781C57.2634 27.7376 56.8194 27.6173 56.326 27.6173C55.8388 27.6173 55.3947 27.7345 54.9938 27.9689C54.5929 28.2032 54.2722 28.5239 54.0317 28.931C53.7911 29.3319 53.6709 29.7821 53.6709 30.2817V30.3002C53.6709 30.8121 53.785 31.2685 54.0132 31.6694C54.2414 32.0641 54.5528 32.3755 54.9475 32.6037C55.3484 32.8319 55.7987 32.946 56.2982 32.946C56.804 32.946 57.2573 32.835 57.6582 32.613C58.0591 32.3848 58.3767 32.0764 58.611 31.6879C58.8516 31.2993 58.9718 30.8522 58.9718 30.3464V30.3372H59.5177V32.7703H59.2124C59.052 33.128 58.8115 33.461 58.4908 33.7694C58.1762 34.0716 57.7877 34.3152 57.3251 34.5002C56.8626 34.6853 56.3229 34.7778 55.7062 34.7778C54.855 34.7778 54.0995 34.5897 53.4396 34.2135C52.7858 33.8311 52.2739 33.3068 51.9039 32.6407C51.5338 31.9747 51.3488 31.2191 51.3488 30.3742V30.3557C51.3488 29.4552 51.5585 28.6535 51.9779 27.9504C52.4035 27.2411 52.9894 26.686 53.7356 26.2851C54.4881 25.8781 55.3454 25.6746 56.3075 25.6746ZM65.7345 37.5439C65.3213 37.5439 64.9728 37.4051 64.6891 37.1276C64.4116 36.8439 64.2728 36.5016 64.2728 36.1007C64.2728 35.6875 64.4116 35.3421 64.6891 35.0646C64.9728 34.787 65.3213 34.6483 65.7345 34.6483C66.1539 34.6483 66.5024 34.787 66.7799 35.0646C67.0574 35.3421 67.1962 35.6875 67.1962 36.1007C67.1962 36.5016 67.0574 36.8439 66.7799 37.1276C66.5024 37.4051 66.1539 37.5439 65.7345 37.5439ZM65.7345 30.6887C65.3213 30.6887 64.9728 30.55 64.6891 30.2724C64.4116 29.9887 64.2728 29.6433 64.2728 29.2363C64.2728 28.8292 64.4116 28.4869 64.6891 28.2094C64.9728 27.9319 65.3213 27.7931 65.7345 27.7931C66.1539 27.7931 66.5024 27.9319 66.7799 28.2094C67.0574 28.4869 67.1962 28.8292 67.1962 29.2363C67.1962 29.6433 67.0574 29.9887 66.7799 30.2724C66.5024 30.55 66.1539 30.6887 65.7345 30.6887ZM76.3087 39.3479V36.7853H69.7681V34.824C70.1196 34.2258 70.4742 33.6275 70.8319 33.0293C71.1897 32.4249 71.5505 31.8235 71.9143 31.2253C72.2782 30.6271 72.6452 30.035 73.0152 29.4491C73.3853 28.857 73.7523 28.2742 74.1161 27.7006C74.4862 27.1208 74.8532 26.5534 75.217 25.9983H78.5845V34.8148H80.3885V36.7853H78.5845V39.3479H76.3087ZM71.9791 34.8703H76.3457V27.8949H76.2162C75.9386 28.3204 75.6549 28.7583 75.3651 29.2085C75.0814 29.6526 74.7946 30.1059 74.5047 30.5685C74.2148 31.0249 73.925 31.4874 73.6351 31.9562C73.3514 32.4249 73.0677 32.8936 72.784 33.3623C72.5064 33.8249 72.2381 34.2844 71.9791 34.7408V34.8703ZM85.8652 39.3479V28.3389H85.708L82.3775 30.6887V28.4499L85.8652 25.9983H88.2336V39.3479H85.8652Z" fill="black"/>
<rect opacity="0.35" x="364.244" y="26.0992" width="26.7481" height="13.374" rx="4.23511" stroke="black" stroke-width="1.1145"/>
<path opacity="0.4" d="M392.664 30.8705V35.4127C393.561 35.028 394.144 34.1331 394.144 33.1416C394.144 32.1501 393.561 31.2552 392.664 30.8705Z" fill="black"/>
<rect x="365.916" y="27.7709" width="23.4046" height="10.0305" rx="2.78626" fill="black"/>
<path fill-rule="evenodd" clip-rule="evenodd" d="M346.156 29.0014C348.928 29.0015 351.594 30.0292 353.603 31.872C353.754 32.0143 353.996 32.0125 354.145 31.868L355.591 30.4599C355.667 30.3866 355.709 30.2873 355.708 30.184C355.707 30.0807 355.664 29.9819 355.588 29.9095C350.315 25.0338 341.997 25.0338 336.724 29.9095C336.648 29.9819 336.604 30.0806 336.604 30.1839C336.603 30.2872 336.645 30.3865 336.72 30.4599L338.167 31.868C338.316 32.0127 338.558 32.0145 338.709 31.872C340.718 30.0291 343.384 29.0014 346.156 29.0014ZM346.153 33.7049C347.665 33.7048 349.124 34.2752 350.245 35.3051C350.397 35.4513 350.636 35.4481 350.784 35.298L352.219 33.8276C352.294 33.7505 352.336 33.6459 352.335 33.5371C352.334 33.4284 352.29 33.3247 352.213 33.2491C348.798 30.0273 343.51 30.0273 340.095 33.2491C340.018 33.3247 339.974 33.4285 339.973 33.5372C339.972 33.646 340.014 33.7506 340.09 33.8276L341.524 35.298C341.672 35.4481 341.911 35.4513 342.063 35.3051C343.183 34.2759 344.641 33.7056 346.153 33.7049ZM348.966 36.8184C348.968 36.9358 348.927 37.049 348.852 37.1312L346.426 39.867C346.355 39.9474 346.258 39.9927 346.157 39.9927C346.056 39.9927 345.959 39.9474 345.888 39.867L343.461 37.1312C343.386 37.0489 343.345 36.9357 343.347 36.8183C343.35 36.7009 343.395 36.5897 343.473 36.511C345.022 35.0466 347.291 35.0466 348.841 36.511C348.919 36.5897 348.964 36.701 348.966 36.8184Z" fill="black"/>
<path fill-rule="evenodd" clip-rule="evenodd" d="M328.246 27.4166C328.246 26.7111 327.714 26.1392 327.057 26.1392H325.868C325.212 26.1392 324.679 26.7111 324.679 27.4166V38.4881C324.679 39.1936 325.212 39.7655 325.868 39.7655H327.057C327.714 39.7655 328.246 39.1936 328.246 38.4881V27.4166ZM319.96 28.8644H321.149C321.806 28.8644 322.338 29.4501 322.338 30.1726V38.4574C322.338 39.1799 321.806 39.7655 321.149 39.7655H319.96C319.304 39.7655 318.772 39.1799 318.772 38.4574V30.1726C318.772 29.4501 319.304 28.8644 319.96 28.8644ZM315.133 31.8168H313.944C313.287 31.8168 312.755 32.4099 312.755 33.1416V38.4407C312.755 39.1724 313.287 39.7655 313.944 39.7655H315.133C315.789 39.7655 316.321 39.1724 316.321 38.4407V33.1416C316.321 32.4099 315.789 31.8168 315.133 31.8168ZM309.225 34.5421H308.036C307.38 34.5421 306.847 35.1268 306.847 35.848V38.4597C306.847 39.1809 307.38 39.7655 308.036 39.7655H309.225C309.881 39.7655 310.414 39.1809 310.414 38.4597V35.848C310.414 35.1268 309.881 34.5421 309.225 34.5421Z" fill="black"/>
</svg>
